<mxfile host="Electron" modified="2024-04-16T00:37:26.501Z" agent="Mozilla/5.0 (Windows NT 10.0; Win64; x64) AppleWebKit/537.36 (KHTML, like Gecko) draw.io/24.1.0 Chrome/120.0.6099.109 Electron/28.1.0 Safari/537.36" etag="_V5hxoQfdLVM7u6F6Aqw" version="24.1.0" type="device">
  <diagram name="PÃ¡gina-1" id="qJPM0jtTW3Ny401oVzVN">
    <mxGraphModel dx="2390" dy="1423" grid="1" gridSize="10" guides="1" tooltips="1" connect="1" arrows="1" fold="1" page="1" pageScale="1" pageWidth="827" pageHeight="1169" math="0" shadow="0">
      <root>
        <mxCell id="0" />
        <mxCell id="1" parent="0" />
        <mxCell id="BmRDIqLE-ELyAQFLzGB0-56" style="edgeStyle=orthogonalEdgeStyle;rounded=0;orthogonalLoop=1;jettySize=auto;html=1;" edge="1" parent="1" source="BmRDIqLE-ELyAQFLzGB0-1" target="BmRDIqLE-ELyAQFLzGB0-45">
          <mxGeometry relative="1" as="geometry" />
        </mxCell>
        <UserObject label="" tags="Fundo" id="BmRDIqLE-ELyAQFLzGB0-1">
          <mxCell style="vsdxID=1;fillColor=none;gradientColor=none;strokeColor=none;spacingTop=-3;spacingBottom=-3;spacingLeft=-3;spacingRight=-3;points=[[0.5,1.68,0],[0.5,0,0],[0,0.5,0],[1,0.5,0]];labelBackgroundColor=none;rounded=0;html=1;whiteSpace=wrap;" vertex="1" parent="1">
            <mxGeometry x="344" y="560" width="48" height="54" as="geometry" />
          </mxCell>
        </UserObject>
        <mxCell id="BmRDIqLE-ELyAQFLzGB0-2" style="vsdxID=2;fillColor=#50e6ff;gradientColor=none;shape=stencil(lZHNDoMgEISfhisBVq2crX0PE7GQUjCI/Xn7QklTNTUNt9nZbyeEQdBMshsFYmTyzl7EXfVeIjgixpSRwikfFIIWQTNYJ87OzqZP89hFMqqrvcWER7orcUXjESPPZBDM6rdxSrhWZoEXfMsfAJf7PC8w8HX+PkwJWaG0wjXNecsn4CeelZ35LX/xIL4NDErrVOByv20sWKltaF8=);strokeColor=none;spacingTop=-3;spacingBottom=-3;spacingLeft=-3;spacingRight=-3;points=[[0.5,1.63,0],[0.5,0,0],[0,0.5,0],[1,0.5,0]];labelBackgroundColor=none;rounded=0;html=1;whiteSpace=wrap;" vertex="1" parent="BmRDIqLE-ELyAQFLzGB0-1">
          <mxGeometry y="31" width="48" height="23" as="geometry" />
        </mxCell>
        <mxCell id="BmRDIqLE-ELyAQFLzGB0-3" style="vsdxID=3;fillColor=#FFFFFF;gradientColor=none;shape=stencil(UzV2Ls5ILEhVNTIoLinKz04tz0wpyVA1dlE1MsrMy0gtyiwBslSNXVWNndPyi1LTi/JL81Ig/IJEkEoQKze/DGRCBUSfAUiHkUElhGdmomdhDBZxgyjOycxDUmxiqWdiiaLBALdiQwMMsy0NSTEbZgBW5SS5m4BiIAMRPGmZOTmQ0EWWRw9OoBAkKoxdAQ==);strokeColor=none;spacingTop=-3;spacingBottom=-3;spacingLeft=-3;spacingRight=-3;points=[[0.5,1.63,0],[0.5,0,0],[0,0.5,0],[1,0.5,0]];labelBackgroundColor=none;rounded=0;html=1;whiteSpace=wrap;" vertex="1" parent="BmRDIqLE-ELyAQFLzGB0-1">
          <mxGeometry x="4" width="40" height="45" as="geometry" />
        </mxCell>
        <mxCell id="BmRDIqLE-ELyAQFLzGB0-4" style="vsdxID=4;fillColor=#50e6ff;gradientColor=none;shape=stencil(UzV2Ls5ILEhVNTIoLinKz04tz0wpyVA1dlE1MsrMy0gtyiwBslSNXVWNndPyi1LTi/JL81Ig/IJEkEoQKze/DGRCBUSfoYEBSI+RQSWED+G5QZTmZObhUQrjY1WMqtTMRM/CmHiTSXAEilIgA+HPtMycHEgwIcujhwtQCBKmxq4A);strokeColor=none;spacingTop=-3;spacingBottom=-3;spacingLeft=-3;spacingRight=-3;points=[[0.5,1.63,0],[0.5,0,0],[0,0.5,0],[1,0.5,0]];labelBackgroundColor=none;rounded=0;html=1;whiteSpace=wrap;" vertex="1" parent="BmRDIqLE-ELyAQFLzGB0-1">
          <mxGeometry x="4" width="19" height="45" as="geometry" />
        </mxCell>
        <mxCell id="BmRDIqLE-ELyAQFLzGB0-5" style="vsdxID=5;fillColor=#000000;gradientColor=none;shape=stencil(UzV2Ls5ILEhVNTIoLinKz04tz0wpyVA1dlE1MsrMy0gtyiwBslSNXVWNndPyi1LTi/JL81Ig/IJEkEoQKze/DGRCBUSfAUiHkUElMs8NojAnMw+nQkMDPEphkjDFZiZ6lobEmky0E1AUAhkIH6Zl5uRAAghZHj1EgEKQ0DR2BQA=);strokeColor=none;spacingTop=-3;spacingBottom=-3;spacingLeft=-3;spacingRight=-3;points=[[0.5,1.63,0],[0.5,0,0],[0,0.5,0],[1,0.5,0]];labelBackgroundColor=none;rounded=0;html=1;whiteSpace=wrap;" vertex="1" parent="BmRDIqLE-ELyAQFLzGB0-1">
          <mxGeometry x="24" width="20" height="45" as="geometry" />
        </mxCell>
        <mxCell id="BmRDIqLE-ELyAQFLzGB0-6" style="vsdxID=6;fillColor=#53b1e0;gradientColor=none;shape=stencil(UzV2Ls5ILEhVNTIoLinKz04tz0wpyVA1dlE1MsrMy0gtyiwBslSNXVWNndPyi1LTi/JL81Ig/IJEkEoQKze/DGRCBUSfAUiHkUElMs8NojAnMw9JoaEBqlIjcz1jC9zKURXDNBOhlDyFQAbCh2mZOTmQAEKWRw8RoBAkNI1dAQ==);strokeColor=none;spacingTop=-3;spacingBottom=-3;spacingLeft=-3;spacingRight=-3;points=[[0.5,1.63,0],[0.5,0,0],[0,0.5,0],[1,0.5,0]];labelBackgroundColor=none;rounded=0;html=1;whiteSpace=wrap;" vertex="1" parent="BmRDIqLE-ELyAQFLzGB0-1">
          <mxGeometry x="24" y="23" width="20" height="21" as="geometry" />
        </mxCell>
        <mxCell id="BmRDIqLE-ELyAQFLzGB0-7" style="vsdxID=7;fillColor=#9cebff;gradientColor=none;shape=stencil(UzV2Ls5ILEhVNTIoLinKz04tz0wpyVA1dlE1MsrMy0gtyiwBslSNXVWNndPyi1LTi/JL81Ig/IJEkEoQKze/DGRCBUSfoYEBSI+RQSUq3w2iOCczD0kxqlIjcz0jY9yK0U3GYy5JjiCgGMhA+DUtMycHElTI8uhhAxSChKuxKwA=);strokeColor=none;spacingTop=-3;spacingBottom=-3;spacingLeft=-3;spacingRight=-3;points=[[0.5,1.63,0],[0.5,0,0],[0,0.5,0],[1,0.5,0]];labelBackgroundColor=none;rounded=0;html=1;whiteSpace=wrap;" vertex="1" parent="BmRDIqLE-ELyAQFLzGB0-1">
          <mxGeometry x="4" y="23" width="19" height="21" as="geometry" />
        </mxCell>
        <mxCell id="BmRDIqLE-ELyAQFLzGB0-8" style="vsdxID=8;fillColor=#000000;gradientColor=none;shape=stencil(jZHBDsIgEES/Zq+EsrHlXut/NCktRISGYtW/F7JRWxOJtx32zWQzALaL7mcFgi8x+LO6mSFqwCMIYZxWwcQ0AXaA7eiDmoK/uoH03GcyTxe/5oQ7+Xh2CP4gVXHSJ0KtcRv0tXzDNZPVb1xKJuudoZC9T26QHf5liycX0TR8WhmNtVTqdv/dYnqiH8DuCQ==);strokeColor=none;spacingTop=-3;spacingBottom=-3;spacingLeft=-3;spacingRight=-3;points=[[0.5,1.63,0],[0.5,0,0],[0,0.5,0],[1,0.5,0]];labelBackgroundColor=none;rounded=0;html=1;whiteSpace=wrap;" vertex="1" parent="BmRDIqLE-ELyAQFLzGB0-1">
          <mxGeometry x="24" y="31" width="24" height="23" as="geometry" />
        </mxCell>
        <UserObject label="" tags="Fundo" id="BmRDIqLE-ELyAQFLzGB0-10">
          <mxCell style="vsdxID=12;fillColor=none;gradientColor=none;shape=stencil(nZBRDoQgDERP03+WHsHFe5iISyOCQdT19kIaIxq//Jtp3zTpAFaTaUYNUkwx+F6v1EYD+AUpyRkdKCYFqACrzgf9C352LfuxyWRWg1/yhT/nRE5IsZWuZtCSK8CPeI0e/hF+jV7AJM4PO7KWCyr390bSiNtEtQM=);strokeColor=none;spacingTop=-3;spacingBottom=-3;spacingLeft=-3;spacingRight=-3;points=[];labelBackgroundColor=none;rounded=0;html=1;whiteSpace=wrap;" vertex="1" parent="1">
            <mxGeometry x="344" y="729" width="66" height="66" as="geometry" />
          </mxCell>
        </UserObject>
        <UserObject label="" tags="Fundo" id="BmRDIqLE-ELyAQFLzGB0-11">
          <mxCell style="vsdxID=13;fillColor=none;gradientColor=none;shape=stencil(nZBRDoQgDERP03+WHsHFe5iISyOCQdT19kIaIxq//Jtp3zTpAFaTaUYNUkwx+F6v1EYD+AUpyRkdKCYFqACrzgf9C352LfuxyWRWg1/yhT/nRE5IsZWuZtCSK8CPeI0e/hF+jV7AJM4PO7KWCyr390bSiNtEtQM=);strokeColor=none;spacingTop=-3;spacingBottom=-3;spacingLeft=-3;spacingRight=-3;points=[];labelBackgroundColor=none;rounded=0;html=1;whiteSpace=wrap;" vertex="1" parent="1">
            <mxGeometry x="344" y="729" width="66" height="66" as="geometry" />
          </mxCell>
        </UserObject>
        <UserObject label="&lt;div style=&quot;font-size: 1px&quot;&gt;&lt;/div&gt;" tags="Fundo" id="BmRDIqLE-ELyAQFLzGB0-12">
          <mxCell style="verticalAlign=middle;align=center;overflow=width;vsdxID=11;fillColor=none;gradientColor=none;strokeColor=none;spacingTop=-3;spacingBottom=-3;spacingLeft=-3;spacingRight=-3;points=[[0.5,1,0],[0.5,0,0],[0,0.5,0],[1,0.5,0]];labelBackgroundColor=none;rounded=0;html=1;whiteSpace=wrap;" vertex="1" parent="1">
            <mxGeometry x="344" y="729" width="66" height="66" as="geometry" />
          </mxCell>
        </UserObject>
        <UserObject label="" tags="Fundo" id="BmRDIqLE-ELyAQFLzGB0-13">
          <mxCell style="vsdxID=21;fillColor=none;gradientColor=none;strokeColor=none;spacingTop=-3;spacingBottom=-3;spacingLeft=-3;spacingRight=-3;points=[[0.5,1.34,0],[0.5,0,0],[0,0.5,0],[1,0.5,0]];labelBackgroundColor=none;rounded=0;html=1;whiteSpace=wrap;" vertex="1" parent="1">
            <mxGeometry x="340" y="879" width="55" height="55" as="geometry" />
          </mxCell>
        </UserObject>
        <mxCell id="BmRDIqLE-ELyAQFLzGB0-14" style="vsdxID=22;fillColor=none;gradientColor=none;strokeColor=none;spacingTop=-3;spacingBottom=-3;spacingLeft=-3;spacingRight=-3;points=[[0.5,1.31,0],[0.5,0,0],[0,0.5,0],[1,0.5,0]];labelBackgroundColor=none;rounded=0;html=1;whiteSpace=wrap;" vertex="1" parent="BmRDIqLE-ELyAQFLzGB0-13">
          <mxGeometry width="55" height="55" as="geometry" />
        </mxCell>
        <mxCell id="BmRDIqLE-ELyAQFLzGB0-15" style="vsdxID=23;fillColor=#000000;gradientColor=none;shape=stencil(fVLLcsMgDPwarhqBeJ7T5D8yjVMzde0McVr374sLTi1PxzexrNhFWkGHe3u+NULhfUzDe/MVL2Mr6EUoFfu2SXHMlaCjoMN1SM1bGh79pZxv55k5Vx/D5/zCVPqcAwpzl8LvgnjzezwV9usjFbost8ZB8JVfIYlYgEkVgBBw4VQoWNAVmqi2GUBdWfQ0I2lPHblyNuP8RhsMcWkVIBgurRQE4tJSL6wq3cV+Nab8rmZTyny7a1UToOV2N2NyCD5wrxqQuFVvwDhuNXuxuzt6LmQR1vm/iovnhZDl4tmP3AxqnQ76Lx65+EvWNXZdCeb6fpvEDJUU0/EH);strokeColor=none;spacingTop=-3;spacingBottom=-3;spacingLeft=-3;spacingRight=-3;points=[[0.5,1.31,0],[0.5,0,0],[0,0.5,0],[1,0.5,0]];labelBackgroundColor=none;rounded=0;html=1;whiteSpace=wrap;" vertex="1" parent="BmRDIqLE-ELyAQFLzGB0-14">
          <mxGeometry width="55" height="55" as="geometry" />
        </mxCell>
        <mxCell id="BmRDIqLE-ELyAQFLzGB0-16" style="vsdxID=24;fillColor=#5ea0ef;gradientColor=none;shape=stencil(lVnLchw3DPyavaKGBJ9nx/kPVyxHW1Eklywn0t8HzC4Jsunh7N60I3CaAJoNEHPiTz8ev3x/ONntx9vry18P/56/vj2e+LeTtefnx4fX85v8deLPJ/707eX14c/Xl5/PXy+/v38pluWvv1/+KW94v6zzG222rLLbx+XJ9v+v3y/Gf/x8vVibyz8tk8lXc9Pbb+/28tOQ81eD6xNria9r3nkyYt2HWSF3S65PYqRgR3DZnh3BzbaN0L3DPNrsIMdACaD1rVeYnMinEbnfHs9Wt/pd1oQRXQLqRviyRR7h5b186Png99P5+XZijCxKlrwfjI3syC2jmogNRDWTzeAYUwTHhAmbGz0LiXIcPZMYbUv8EIkt4HuKccQPjgLQOVfHFF52BPCOXF6iZwLwQH7KaeWPklk3yHPkeSf0Y2JvyNWRRFhKK+e8nUJbVzTvvAQWE0s5jc75QHn0jYmX0JIKD9CZNoisJBVPS0m9gaxKRmZSpWVavSeTwHOvdL2COSaPvvuJ1GzJuDvxmSkBvniWwH+O+uZG6pqxCu8MBdAqruzbQXfCeh7RtVw05yNZoLV4FQ6lCjh3JFZgPjJaAlAr0sdt55Wb7x2vUCxYdCCckFcBSF1ijbwylJdFQOhhQCyLDGL1M03zG76AQRkwccIXATjAt9VAeaWi1/AzQQ0MBM73kd+RyjGzx6kaUyuuhDjYF72zS+eEPNDTpI0MOscagqrQqWl2TWSkDLyVNsAvJUui5uDMJqfFu3JLm6h2ZmXfGN5ADjQje7LLU2sTgffZTpJRyinAp9Q6sneeg8870R/Te0O6oBiJdoVhQW69z54oO4roobwFPPStqWrxFaXCgjTrUm56tqeKQZsThbeQXzfTK7fq1zR5o8wAH8gu+xwWBXIAL6/BkmBa8W35dXoGKr22Wn6V3qE2aHvuWy30tfVzLYct+sJSkM7eqpZkOUvmTvzgp5JYPIOqFGxztjteGctSa5T24w+F6Ziudy8YD4R0PBEW+Mr3/ZDkmRIOUlKaaijUEjgLXUrcqhzfrniS2Yx3uUQB8GOeGgWRZYf9r3QYcCJFQfJS8WSDFk5kymTA/ay8qYzgSfH66Kvg+kWCb8jX3QtGRkSjzUIL+MFlzOhdoz6y7ay1jNipv5H0Q9ssRqgR5diGhYO5ZfWjUW9ds2SJQQaJNk0ETiDpZXOQwERwoovurK83En7A1ltH03M73d56K+0FUdAP4Uu/AOVM3HLgvFihoEmEPJxeqf0J6CsB8Uv1KGtA0EsQgSu9leYD3f8l/DgPGbkijXAeL69CLrPub7zqmN79sXfvrXS/jL17B9/NHtb58rPa6UWh4Ydp0BC5hqLvL7eZL+t02elGHH3rNdrULrWOpJtfRRzbual7L5K8rL8bhN42Pyv21qY+FZpbUVdorw1ofZTrBGlvZJh/dWvKc2PvcWLJ043UdgGqj44iLwHEYUCYyqxYgUgJlJnvFei9zqH24MN0ZZUuz7sJHht7scIqW6ZTOAywZP3ioGacMin4rQuOqNWrp4pTBA9L0wqdtTht4GSJVYSTLQd3LFtTax1nfoX2mn7aEyf8G24Wusv9QoS38t6zKmNGaahig5Wg1GicSnhydoVftNrO+DDpK8UBuoYykwOG9cVaU5IXDBMRralWhoVlwmSJxRPZTb60Tk4Bi9NdRKwmQfDVag/fE+MsH9gqemrn7ydYB6QRR7aW4flSD3KePmOwfjZohaB+2WhVkKdrYPLTZDJhrhBdDLBrkJ4fq6Dc5lCNSrGCWtA3uFoFw5orRy3x3QvkD/2o9u389HT5Jtf/Hz/CyaPLBzz+/B8=);strokeColor=none;spacingTop=-3;spacingBottom=-3;spacingLeft=-3;spacingRight=-3;points=[[0.5,1.31,0],[0.5,0,0],[0,0.5,0],[1,0.5,0]];labelBackgroundColor=none;rounded=0;html=1;whiteSpace=wrap;" vertex="1" parent="BmRDIqLE-ELyAQFLzGB0-14">
          <mxGeometry x="4" y="5" width="45" height="44" as="geometry" />
        </mxCell>
        <mxCell id="BmRDIqLE-ELyAQFLzGB0-17" style="vsdxID=25;fillColor=#FFFFFF;gradientColor=none;shape=stencil(rVjbUttADP2avGr2fnmm9D+YEkqmlDABWvj7ymOvdvc43jSdvoVF8rGkoyOtd/bm9fHuZb8z6vXtdPyx/324f3vc2S87Yw7Pj/vT4Y1/7eztzt48HE/776fj+/P9/PfL3WQ5/fp5/DU94WP2U6Ty5GTU53zgKM0HX2fzb++n2V7P/7cUF3s5CGY++TDzSSTrFxtTbJRbbOx8ovViYcUijWB1oJh6YE059sDGkDc9ciCdemR+PRV7cM1Bh2HQiqLu0ae4bQ9vDUWAt5687/HZKkDwLlJ2Q3xDuYcPWt5I4BUl18NHTxrgOSMp9fCJrcwInvOqTI+ffS3pAqY9Rai7VqpHz+R67Jwo6xF2IBMAOpVs1dBLAILMRph4BciRYlf0p8PzNY1xpXnfdr5GtdQgk43jPGTgP7sEaIBUaWrWRoXtipwFBlxC1/xkYGDWFAL0XyBre/wYSYcenxvQQAP6WAi2xcBIDhjoHekM+GwF8XstYC1+6PFdIjtUPfbJQEPm8lp+DDaAXYXPYuNyD691OdpKvyWL6seBYQOamlgjVhbgtShiAx+G8JmMWaOD/ER5nwZcjEqhV6lfgfd9dblRrrXvG9FybH3jZin1WYC1g+j5WXvHQmCvsOdWkBm2nCga9kZQwrHP5qioXxmERgRRelMRSGRwohYiDcKzLXhXCVWOGvE1YiUCWVozrsAVNIbjweO3c9V6SG7twL5RsX+zn8iRBg68FLhrHCZ56tkxVduO8s1a5ft0MyV96tPtPCWQAm5QzLizhFLADx+RuTrImI2DBP6H7lo59P07zZfYOSQLnMEEJrXaZhLPH5hl/BgUc5YS3KZSkKQ2s1QPZykPTlEEjT6CnxvdKPjM1h6+NVqOormwy7Y+WmirYJRmU7aj2q+JEsh5asZyUXhXUrmVflP370LpTLBKx2ZLLZTmtQUuEXG9y07r7TD7TBgD/TONIBilU6qhf2CTTbyFglqpC6ssV1lGpBYXEEo2wjsMJp0XD7zAlPpt1dysbk9KUicl9wQpN+SA79NajQUv97+zDZ1DTdPyrr68/jZBgR+82EQgCEcEm9602MRVptx61zFjejJ/oT2qT62SlsIJfpIV8cOurQo/+UI4lPfWp97+YNfil4Rdy6ZyQ2yCTwA+yffwls0UgNh52iRQJrnU1UFOGbdMBbetqGEOrlZc8SiJCCLTDUMdLBE5l8291WTcI6rVtih5aJBcySOqxDINmszjyQLrWJUU3nJlmJxtkr8YYlc78I/6zefh8PQ0fzJq/4/fiPho/r5kb/8A);strokeColor=none;spacingTop=-3;spacingBottom=-3;spacingLeft=-3;spacingRight=-3;points=[[0.5,1.31,0],[0.5,0,0],[0,0.5,0],[1,0.5,0]];labelBackgroundColor=none;rounded=0;html=1;whiteSpace=wrap;" vertex="1" parent="BmRDIqLE-ELyAQFLzGB0-14">
          <mxGeometry x="12" y="21" width="30" height="12" as="geometry" />
        </mxCell>
        <mxCell id="BmRDIqLE-ELyAQFLzGB0-18" value="&lt;div style=&quot;font-size: 1px&quot;&gt;&lt;font style=&quot;font-size:15.52px;font-family:Segoe UI;color:#000000;direction:ltr;letter-spacing:0px;line-height:120%;opacity:1&quot;&gt;Azure DNS&lt;br/&gt;&lt;/font&gt;&lt;/div&gt;" style="text;vsdxID=21;fillColor=none;gradientColor=none;strokeColor=none;spacingTop=-3;spacingBottom=-3;spacingLeft=-3;spacingRight=-3;points=[[0.5,1.34,0],[0.5,0,0],[0,0.5,0],[1,0.5,0]];labelBackgroundColor=none;rounded=0;html=1;whiteSpace=wrap;verticalAlign=middle;align=center;overflow=width;;html=1;" vertex="1" parent="BmRDIqLE-ELyAQFLzGB0-13">
          <mxGeometry x="-23.19" y="55" width="101.6" height="18.63" as="geometry" />
        </mxCell>
        <UserObject label="" tags="Fundo" id="BmRDIqLE-ELyAQFLzGB0-117">
          <mxCell style="vsdxID=1085;edgeStyle=none;dashed=1;dashPattern=4.00 2.00;startArrow=none;endArrow=block;startSize=5;endSize=5;strokeWidth=2;strokeColor=#7f7f7f;spacingTop=0;spacingBottom=0;spacingLeft=0;spacingRight=0;verticalAlign=middle;html=1;labelBackgroundColor=#ffffff;rounded=0;" edge="1" parent="BmRDIqLE-ELyAQFLzGB0-13" source="BmRDIqLE-ELyAQFLzGB0-112">
            <mxGeometry relative="1" as="geometry">
              <Array as="points" />
              <mxPoint x="27" y="105" as="sourcePoint" />
              <mxPoint x="27" y="72" as="targetPoint" />
            </mxGeometry>
          </mxCell>
        </UserObject>
        <mxCell id="BmRDIqLE-ELyAQFLzGB0-118" value="&lt;div style=&quot;font-size: 1px&quot;&gt;&lt;/div&gt;" style="text;vsdxID=1085;edgeStyle=none;dashed=1;dashPattern=4.00 2.00;startArrow=none;endArrow=block;startSize=5;endSize=5;strokeWidth=2;strokeColor=none;spacingTop=0;spacingBottom=0;spacingLeft=0;spacingRight=0;verticalAlign=middle;html=1;labelBackgroundColor=#ffffff;rounded=0;align=center;fillColor=none;gradientColor=none;whiteSpace=wrap;;html=1;;rotation=270" vertex="1" parent="BmRDIqLE-ELyAQFLzGB0-117">
          <mxGeometry width="62.31" relative="1" as="geometry">
            <mxPoint x="-31.155" as="offset" />
          </mxGeometry>
        </mxCell>
        <UserObject label="" tags="Fundo" id="BmRDIqLE-ELyAQFLzGB0-19">
          <mxCell style="vsdxID=1085;edgeStyle=none;dashed=1;dashPattern=4.00 2.00;startArrow=none;endArrow=block;startSize=5;endSize=5;strokeWidth=2;strokeColor=#7f7f7f;spacingTop=0;spacingBottom=0;spacingLeft=0;spacingRight=0;verticalAlign=middle;html=1;labelBackgroundColor=#ffffff;rounded=0;" edge="1" parent="1">
            <mxGeometry relative="1" as="geometry">
              <Array as="points" />
              <mxPoint x="360" y="721" as="sourcePoint" />
              <mxPoint x="360" y="658" as="targetPoint" />
            </mxGeometry>
          </mxCell>
        </UserObject>
        <mxCell id="BmRDIqLE-ELyAQFLzGB0-20" value="&lt;div style=&quot;font-size: 1px&quot;&gt;&lt;/div&gt;" style="text;vsdxID=1085;edgeStyle=none;dashed=1;dashPattern=4.00 2.00;startArrow=none;endArrow=block;startSize=5;endSize=5;strokeWidth=2;strokeColor=none;spacingTop=0;spacingBottom=0;spacingLeft=0;spacingRight=0;verticalAlign=middle;html=1;labelBackgroundColor=#ffffff;rounded=0;align=center;fillColor=none;gradientColor=none;whiteSpace=wrap;;html=1;;rotation=270" vertex="1" parent="BmRDIqLE-ELyAQFLzGB0-19">
          <mxGeometry width="62.31" relative="1" as="geometry">
            <mxPoint x="-31.155" as="offset" />
          </mxGeometry>
        </mxCell>
        <UserObject label="" tags="Fundo" id="BmRDIqLE-ELyAQFLzGB0-21">
          <mxCell style="vsdxID=1101;fillColor=#0078d4;gradientColor=#5ea0ef;shape=stencil(xZbdcts4DIWfxrccgPi/7LTd9+i0aePZbNJx02369j2KLNuik1X3qjcaiQTED+AByJ28/Xb74evNrtO3x8PD3zc/9p8eb3fybtf7/v725rB/xNtO3u/k7eeHw82Xw8P3+0/z99cPk+X09s/Dv9Mfnma/jKY6eXX6OY8w0fP3X7P53f7+wpytTXOvm3/8fph/z/O0t+yeYeGS4VF1dOa1Nz31eeD4+bOf8YojnKok+Ggra9vjZ/TGfGahNy/g0Hp58xasbiRpJr5GeQ39OK3auCyrshBGX6Nd5klO9n2DDl5JLOKaHid//q/1jjDsTTId+TKublek3VWQITU5RbmQRiO+ItWtRHI1I4AoS6nlGlWiMbajenbRsjVql5ZSQvBMEqIllIVWekOyk0JcxIa89myma9rJPjdoe017aUxeWDIG2hcXXGgYoiJnRMORgwREGgnSlVNUfUDFbyUGVGmhG6iTmzsb1stOY2IFO+PumVaxxPHULzyxHUyJKK9JMagTa9g1qF/lNPx3QMflFnVoC0JReRq2zGmUqxJ8VWEwxaFrVlrjGbWhkmiDzCA/5kACUbqMivE13dByXJoYIokOTQY6kq95Ako3dXKExElDE3JvfVAkZ6vYYPREqRtQyUp5KHVUM4rHRIkVRkvnWYCDnwXLExOzj40Jyc8y7pkMzRaddLL0SW0+EmurDeBE++FeSEUm5ZDRV5c8IhW355nQEIlBmyhO6hXMQpPRKVo5+46t1NtWGb284tJKszExGgIKN9KuWEMQJspPLQZtKhoJuQXOC8glTlq5gD01w0W/GNpSQ3kDTKRwoaCGojeDABXNtk/5l6Hx03BiuqJD1iRWdDSWNd7Z+qyF2DyVaDg1E+lPZGB69Kv0WYMoUSdIfdGpXBY8RKqlqH0rQ+sY+BKnynAYVTUZANdXkv95g/nD5ng5X8U+7+/u5pvc5fx4dcPQfO2T978A);strokeColor=#3f3f3f;spacingTop=-3;spacingBottom=-3;spacingLeft=-3;spacingRight=-3;points=[[0.05,0.5,0],[0.5,-0.03,0],[0.93,0.5,0],[0.5,1.02,0],[0.5,1.63,0]];labelBackgroundColor=none;rounded=0;html=1;whiteSpace=wrap;" vertex="1" parent="1">
            <mxGeometry x="330" y="731" width="76" height="47" as="geometry" />
          </mxCell>
        </UserObject>
        <mxCell id="BmRDIqLE-ELyAQFLzGB0-22" value="&lt;div style=&quot;font-size: 1px&quot;&gt;&lt;font style=&quot;font-size:15.52px;font-family:Segoe UI;color:#ffffff;direction:ltr;letter-spacing:0px;line-height:120%;opacity:1&quot;&gt;Internet&lt;br/&gt;&lt;/font&gt;&lt;/div&gt;" style="text;vsdxID=1101;fillColor=none;gradientColor=none;strokeColor=none;spacingTop=-3;spacingBottom=-3;spacingLeft=-3;spacingRight=-3;points=[[0.05,0.5,0],[0.5,-0.03,0],[0.93,0.5,0],[0.5,1.02,0],[0.5,1.63,0]];labelBackgroundColor=none;rounded=0;html=1;whiteSpace=wrap;verticalAlign=bottom;align=center;overflow=width;;html=1;" vertex="1" parent="BmRDIqLE-ELyAQFLzGB0-21">
          <mxGeometry x="-18.14" y="-3.45" width="116.43" height="47.02" as="geometry" />
        </mxCell>
        <mxCell id="BmRDIqLE-ELyAQFLzGB0-23" vertex="1" parent="1">
          <mxGeometry x="368" y="788" as="geometry" />
        </mxCell>
        <UserObject label="" tags="Fundo" id="BmRDIqLE-ELyAQFLzGB0-24">
          <mxCell style="vsdxID=1086;edgeStyle=none;dashed=1;dashPattern=4.00 2.00;startArrow=none;endArrow=block;startSize=5;endSize=5;strokeWidth=2;strokeColor=#7f7f7f;spacingTop=0;spacingBottom=0;spacingLeft=0;spacingRight=0;verticalAlign=middle;html=1;labelBackgroundColor=#ffffff;rounded=0;entryX=0.509090909090909;entryY=0;entryDx=0;entryDy=0;entryPerimeter=0;" edge="1" parent="1" source="BmRDIqLE-ELyAQFLzGB0-23" target="BmRDIqLE-ELyAQFLzGB0-13">
            <mxGeometry relative="1" as="geometry">
              <Array as="points" />
            </mxGeometry>
          </mxCell>
        </UserObject>
        <mxCell id="BmRDIqLE-ELyAQFLzGB0-25" value="&lt;div style=&quot;font-size: 1px&quot;&gt;&lt;/div&gt;" style="text;vsdxID=1086;edgeStyle=none;dashed=1;dashPattern=4.00 2.00;startArrow=none;endArrow=block;startSize=5;endSize=5;strokeWidth=2;strokeColor=none;spacingTop=0;spacingBottom=0;spacingLeft=0;spacingRight=0;verticalAlign=middle;html=1;labelBackgroundColor=#ffffff;rounded=0;align=center;fillColor=none;gradientColor=none;whiteSpace=wrap;;html=1;;rotation=270.0000008371587" vertex="1" parent="BmRDIqLE-ELyAQFLzGB0-24">
          <mxGeometry width="90.83" relative="1" as="geometry">
            <mxPoint x="-45.415" as="offset" />
          </mxGeometry>
        </mxCell>
        <UserObject label="" tags="Fundo" id="BmRDIqLE-ELyAQFLzGB0-26">
          <mxCell style="vsdxID=1085;edgeStyle=none;dashed=1;dashPattern=4.00 2.00;startArrow=none;endArrow=block;startSize=5;endSize=5;strokeWidth=2;strokeColor=#7f7f7f;spacingTop=0;spacingBottom=0;spacingLeft=0;spacingRight=0;verticalAlign=middle;html=1;labelBackgroundColor=#ffffff;rounded=0;" edge="1" parent="1">
            <mxGeometry relative="1" as="geometry">
              <Array as="points" />
              <mxPoint x="379" y="729" as="sourcePoint" />
              <mxPoint x="379" y="666" as="targetPoint" />
            </mxGeometry>
          </mxCell>
        </UserObject>
        <mxCell id="BmRDIqLE-ELyAQFLzGB0-27" value="&lt;div style=&quot;font-size: 1px&quot;&gt;&lt;/div&gt;" style="text;vsdxID=1085;edgeStyle=none;dashed=1;dashPattern=4.00 2.00;startArrow=none;endArrow=block;startSize=5;endSize=5;strokeWidth=2;strokeColor=none;spacingTop=0;spacingBottom=0;spacingLeft=0;spacingRight=0;verticalAlign=middle;html=1;labelBackgroundColor=#ffffff;rounded=0;align=center;fillColor=none;gradientColor=none;whiteSpace=wrap;;html=1;;rotation=270" vertex="1" parent="BmRDIqLE-ELyAQFLzGB0-26">
          <mxGeometry width="62.31" relative="1" as="geometry">
            <mxPoint x="-31.155" as="offset" />
          </mxGeometry>
        </mxCell>
        <UserObject label="" tags="Fundo" id="BmRDIqLE-ELyAQFLzGB0-28">
          <mxCell style="vsdxID=1085;edgeStyle=none;dashed=1;dashPattern=4.00 2.00;startArrow=none;endArrow=block;startSize=5;endSize=5;strokeWidth=2;strokeColor=#7f7f7f;spacingTop=0;spacingBottom=0;spacingLeft=0;spacingRight=0;verticalAlign=middle;html=1;labelBackgroundColor=#ffffff;rounded=0;" edge="1" parent="1">
            <mxGeometry relative="1" as="geometry">
              <Array as="points" />
              <mxPoint x="379" y="729" as="sourcePoint" />
              <mxPoint x="379" y="666" as="targetPoint" />
            </mxGeometry>
          </mxCell>
        </UserObject>
        <mxCell id="BmRDIqLE-ELyAQFLzGB0-29" value="&lt;div style=&quot;font-size: 1px&quot;&gt;&lt;/div&gt;" style="text;vsdxID=1085;edgeStyle=none;dashed=1;dashPattern=4.00 2.00;startArrow=none;endArrow=block;startSize=5;endSize=5;strokeWidth=2;strokeColor=none;spacingTop=0;spacingBottom=0;spacingLeft=0;spacingRight=0;verticalAlign=middle;html=1;labelBackgroundColor=#ffffff;rounded=0;align=center;fillColor=none;gradientColor=none;whiteSpace=wrap;;html=1;;rotation=270" vertex="1" parent="BmRDIqLE-ELyAQFLzGB0-28">
          <mxGeometry width="62.31" relative="1" as="geometry">
            <mxPoint x="-31.155" as="offset" />
          </mxGeometry>
        </mxCell>
        <UserObject label="" tags="Fundo" id="BmRDIqLE-ELyAQFLzGB0-30">
          <mxCell style="vsdxID=1085;edgeStyle=none;dashed=1;dashPattern=4.00 2.00;startArrow=none;endArrow=block;startSize=5;endSize=5;strokeWidth=2;strokeColor=#7f7f7f;spacingTop=0;spacingBottom=0;spacingLeft=0;spacingRight=0;verticalAlign=middle;html=1;labelBackgroundColor=#ffffff;rounded=0;" edge="1" parent="1">
            <mxGeometry relative="1" as="geometry">
              <Array as="points" />
              <mxPoint x="367" y="541" as="sourcePoint" />
              <mxPoint x="367" y="451" as="targetPoint" />
            </mxGeometry>
          </mxCell>
        </UserObject>
        <mxCell id="BmRDIqLE-ELyAQFLzGB0-31" value="&lt;div style=&quot;font-size: 1px&quot;&gt;&lt;/div&gt;" style="text;vsdxID=1085;edgeStyle=none;dashed=1;dashPattern=4.00 2.00;startArrow=none;endArrow=block;startSize=5;endSize=5;strokeWidth=2;strokeColor=none;spacingTop=0;spacingBottom=0;spacingLeft=0;spacingRight=0;verticalAlign=middle;html=1;labelBackgroundColor=#ffffff;rounded=0;align=center;fillColor=none;gradientColor=none;whiteSpace=wrap;;html=1;;rotation=270" vertex="1" parent="BmRDIqLE-ELyAQFLzGB0-30">
          <mxGeometry width="62.31" relative="1" as="geometry">
            <mxPoint x="-31.155" as="offset" />
          </mxGeometry>
        </mxCell>
        <mxCell id="BmRDIqLE-ELyAQFLzGB0-32" value="" style="sketch=0;html=1;aspect=fixed;strokeColor=none;shadow=0;fillColor=#3B8DF1;verticalAlign=top;labelPosition=center;verticalLabelPosition=bottom;shape=mxgraph.gcp2.vpn" vertex="1" parent="1">
          <mxGeometry x="304" y="351" width="120" height="60" as="geometry" />
        </mxCell>
        <mxCell id="BmRDIqLE-ELyAQFLzGB0-33" value="&lt;div style=&quot;&quot;&gt;&lt;font face=&quot;Segoe UI&quot;&gt;&lt;span style=&quot;font-size: 15.52px;&quot;&gt;VPN IPSEC&lt;/span&gt;&lt;/font&gt;&lt;/div&gt;" style="text;vsdxID=1;fillColor=none;gradientColor=none;strokeColor=none;spacingTop=-3;spacingBottom=-3;spacingLeft=-3;spacingRight=-3;points=[[0.5,1.68,0],[0.5,0,0],[0,0.5,0],[1,0.5,0]];labelBackgroundColor=none;rounded=0;html=1;whiteSpace=wrap;verticalAlign=middle;align=center;overflow=width;;html=1;" vertex="1" parent="1">
          <mxGeometry x="315.5" y="401" width="97" height="64" as="geometry" />
        </mxCell>
        <UserObject label="" tags="Fundo" id="BmRDIqLE-ELyAQFLzGB0-34">
          <mxCell style="vsdxID=1085;edgeStyle=none;dashed=1;dashPattern=4.00 2.00;startArrow=none;endArrow=block;startSize=5;endSize=5;strokeWidth=2;strokeColor=#7f7f7f;spacingTop=0;spacingBottom=0;spacingLeft=0;spacingRight=0;verticalAlign=middle;html=1;labelBackgroundColor=#ffffff;rounded=0;" edge="1" parent="1">
            <mxGeometry relative="1" as="geometry">
              <Array as="points" />
              <mxPoint x="440" y="401" as="sourcePoint" />
              <mxPoint x="550" y="401" as="targetPoint" />
            </mxGeometry>
          </mxCell>
        </UserObject>
        <mxCell id="BmRDIqLE-ELyAQFLzGB0-35" value="&lt;div style=&quot;font-size: 1px&quot;&gt;&lt;/div&gt;" style="text;vsdxID=1085;edgeStyle=none;dashed=1;dashPattern=4.00 2.00;startArrow=none;endArrow=block;startSize=5;endSize=5;strokeWidth=2;strokeColor=none;spacingTop=0;spacingBottom=0;spacingLeft=0;spacingRight=0;verticalAlign=middle;html=1;labelBackgroundColor=#ffffff;rounded=0;align=center;fillColor=none;gradientColor=none;whiteSpace=wrap;;html=1;;rotation=270" vertex="1" parent="BmRDIqLE-ELyAQFLzGB0-34">
          <mxGeometry width="62.31" relative="1" as="geometry">
            <mxPoint x="-31.155" as="offset" />
          </mxGeometry>
        </mxCell>
        <mxCell id="BmRDIqLE-ELyAQFLzGB0-215" style="edgeStyle=orthogonalEdgeStyle;rounded=0;orthogonalLoop=1;jettySize=auto;html=1;" edge="1" parent="1" source="BmRDIqLE-ELyAQFLzGB0-36">
          <mxGeometry relative="1" as="geometry">
            <mxPoint x="400" y="211" as="targetPoint" />
            <Array as="points">
              <mxPoint x="615" y="211" />
            </Array>
          </mxGeometry>
        </mxCell>
        <mxCell id="BmRDIqLE-ELyAQFLzGB0-36" value="" style="fillColor=#28A8E0;verticalLabelPosition=bottom;sketch=0;html=1;strokeColor=#ffffff;verticalAlign=top;align=center;points=[[0.145,0.145,0],[0.5,0,0],[0.855,0.145,0],[1,0.5,0],[0.855,0.855,0],[0.5,1,0],[0.145,0.855,0],[0,0.5,0]];pointerEvents=1;shape=mxgraph.cisco_safe.compositeIcon;bgIcon=ellipse;resIcon=mxgraph.cisco_safe.capability.virtual_firewall;" vertex="1" parent="1">
          <mxGeometry x="580" y="351" width="70" height="70" as="geometry" />
        </mxCell>
        <mxCell id="BmRDIqLE-ELyAQFLzGB0-37" value="&lt;div style=&quot;&quot;&gt;&lt;font face=&quot;Segoe UI&quot;&gt;&lt;span style=&quot;font-size: 15.52px;&quot;&gt;Firewall Fortigate&lt;/span&gt;&lt;/font&gt;&lt;/div&gt;" style="text;vsdxID=1;fillColor=none;gradientColor=none;strokeColor=none;spacingTop=-3;spacingBottom=-3;spacingLeft=-3;spacingRight=-3;points=[[0.5,1.68,0],[0.5,0,0],[0,0.5,0],[1,0.5,0]];labelBackgroundColor=none;rounded=0;html=1;whiteSpace=wrap;verticalAlign=middle;align=center;overflow=width;;html=1;" vertex="1" parent="1">
          <mxGeometry x="566.5" y="401" width="97" height="64" as="geometry" />
        </mxCell>
        <UserObject label="" tags="Fundo" id="BmRDIqLE-ELyAQFLzGB0-41">
          <mxCell style="vsdxID=80;fillColor=none;gradientColor=none;strokeColor=none;spacingTop=-3;spacingBottom=-3;spacingLeft=-3;spacingRight=-3;points=[[0.5,1.8,0],[0.5,0,0],[0,0.5,0],[1,0.5,0]];labelBackgroundColor=none;rounded=0;html=1;whiteSpace=wrap;" vertex="1" parent="1">
            <mxGeometry x="750" y="359" width="60" height="60" as="geometry" />
          </mxCell>
        </UserObject>
        <mxCell id="BmRDIqLE-ELyAQFLzGB0-42" style="vsdxID=81;fillColor=none;gradientColor=none;strokeColor=none;spacingTop=-3;spacingBottom=-3;spacingLeft=-3;spacingRight=-3;points=[[0.5,1.31,0],[0.5,0,0],[0,0.5,0],[1,0.5,0]];labelBackgroundColor=none;rounded=0;html=1;whiteSpace=wrap;" vertex="1" parent="BmRDIqLE-ELyAQFLzGB0-41">
          <mxGeometry width="60" height="60" as="geometry" />
        </mxCell>
        <mxCell id="BmRDIqLE-ELyAQFLzGB0-43" style="vsdxID=82;fillColor=#000000;gradientColor=none;shape=stencil(jZTdcoMgEIWfhlsG2PrDdZq8RyYxlanVjDGtvH1wCLoL1fGOlQPf2WVdBodHfb5XTInH0Hff1Z+5DjWDT6aUaeuqN4NbMTgyONy6vvrqu2d79fH9PCmn1U/3O90w+nOZmI4oYX3oo5NXXp69l0q/qRQH/ZZLrBejIqFVyYERqAIIfgUoKKwoeC4pEFt6f5JCUGQWMYNgBYooAbxcGTMCFFuDWLMrV625zinWJfdBuQ6TRekKLmA7X4JtTLvz9Tf7RAOX5Wav5FxmNJ3lzJxPzksVFRJ4mdF8kGhXJZE+NTM3DvKXmFmr5KxYa53FvE3MBDIqg03NBDRW/Zs1fUgs39VtTl9EfxeqfPoYNnW/VqWkNzZ7LlG7xTKsbqZp/KzD+/Fwc5/8YITjCw==);strokeColor=none;spacingTop=-3;spacingBottom=-3;spacingLeft=-3;spacingRight=-3;points=[[0.5,1.31,0],[0.5,0,0],[0,0.5,0],[1,0.5,0]];labelBackgroundColor=none;rounded=0;html=1;whiteSpace=wrap;" vertex="1" parent="BmRDIqLE-ELyAQFLzGB0-42">
          <mxGeometry width="60" height="60" as="geometry" />
        </mxCell>
        <mxCell id="BmRDIqLE-ELyAQFLzGB0-44" style="vsdxID=83;fillColor=#FFFFFF;gradientColor=none;shape=stencil(vVHLDsIgEPwajiQI6RfU+h8bu22JCGRB2/69kG1iazx58DazM/vIjjBtmiCi0CplCjecbZ8nYc5Ca+snJJsLEqYTph0C4Ujh4XvmEaqzont41gkL96naodXKrGF6YSfQtUi0OXXDVlqPfJNP6usotUhYbJIUMmQb/GGrAxpRljVycDBuc1hKM2LclX8/7H9nFfB+82Cd45T2+mcspcSRmu4F);strokeColor=none;spacingTop=-3;spacingBottom=-3;spacingLeft=-3;spacingRight=-3;points=[[0.5,1.31,0],[0.5,0,0],[0,0.5,0],[1,0.5,0]];labelBackgroundColor=none;rounded=0;html=1;whiteSpace=wrap;" vertex="1" parent="BmRDIqLE-ELyAQFLzGB0-42">
          <mxGeometry x="10" y="8.571428571428571" width="46.09" height="47.51142857142857" as="geometry" />
        </mxCell>
        <mxCell id="BmRDIqLE-ELyAQFLzGB0-45" style="vsdxID=84;fillColor=#000000;gradientColor=none;shape=stencil(lZbdUuMwDIWfJrcaW/LvNQvvwUDZdrbbMqXswtuvsokTSyEOvQviqPp8LNvq6O5t//i669C8XS/nX7u/h+frvqMfHeLhtN9dDlf+6ui+o7uX82X383J+Pz0Pf78+9sr+6/f5T/8LH0NeJrB9EprPIUAZsv8feRj0T++XIcEOAmvMmDAGyIPHIfSBWjMGMAHFUUOLymMECTLVpY+HU4UacKozsjqg3EL1TJYlrJGgzoGzEtVITIrgkuTUZRUmpCwoF8vSmMrP2ivJVBBrx2lRlVY2UmISApHg9AFcbHESAQbJ6iOYIFlZFZPkZVUKylZWKWCfIDR8rTOGSEqQ0gZwVPuf8mTUBMw9gBI4G0iqXXvPSQJnW9rrS2AXwSYBnDMY2wJ2CaKTwNNRKrjezrugj1uB9QgJFSzXxuZhqXKs5p2rVypcqtr17bpZwYFRZllIbj0hGggyIUUIzXMWeb+Uu5xjnFxhrRpDKYBV560uP4bS1CFfr9CXa2AC5gutxcue5Kh42RQveWtV4TXFuvl+qKrTpMLGjiwNjlNDf9/gGMCnTYOjhxA3DWaVibcYHBHMrQ4znds0mOG2/Q0ZYgN36W8IEG9tYM6x2w3MdEib/vJCQ6uBF0c0GKBwSwJf8QnXE7aHkVv1ctjxRqgz2GZ39OODVzdiSZm7w5Qem69jXFyItWoM2enX15qzyimPAV+i6vWqIcuwZYsL84VsZPFZsvYS8aOoitc/i9rvefEV4mIS+f7i+xz9EuLiNaopcbFDK2vX2y57aqNH+GMepV8Ox+Mwidf/16M3h4axne7/AQ==);strokeColor=none;spacingTop=-3;spacingBottom=-3;spacingLeft=-3;spacingRight=-3;points=[[0.5,1.31,0],[0.5,0,0],[0,0.5,0],[1,0.5,0]];labelBackgroundColor=none;rounded=0;html=1;whiteSpace=wrap;" vertex="1" parent="BmRDIqLE-ELyAQFLzGB0-42">
          <mxGeometry x="11.73913043478261" y="1.3043478260869563" width="36.52173913043478" height="57.391304347826086" as="geometry" />
        </mxCell>
        <mxCell id="BmRDIqLE-ELyAQFLzGB0-46" style="vsdxID=85;fillColor=#ff9300;gradientColor=none;fillOpacity=75;strokeOpacity=75;shape=stencil(hVTRcoMgEPwaXm+AAw6e0+Q/Mo2pTq1mjGnTvy8WNHJt7Rsse+7O7Z0Cd9f6eKmEltdx6F+rj+Y01gKfhNZNV1dDM8aTwL3A3bkfqpehv3WndL8cJ+Z0euvfpy/cU51ygFORlp8JCB6U+0YOif98G1KBSgQkMCaXZEhJmYC7ToALgD5zMhQCkMssTJAncJRZGQoRwi31YAGpVA8OyJb6kxjXt8DkF9eLuAGz1m6bbt2phZ7uFjxtOX3wM2BAErMpF+ezTQ0GS5tkgViX1JzAH9IWl1AzwvLRkcCEJTjN4gEbSl0NfjOc+O5KXQTSpbQsZQ34UjX6cKUqb3QZy4r/e4o/cgHLxjeOBoXSJYFk/YmTqViDVrszTxBfHjZC/y5bPDw29dy0bVr09Tvf7AilvwLuvwA=);strokeColor=none;spacingTop=-3;spacingBottom=-3;spacingLeft=-3;spacingRight=-3;points=[[0.5,1.31,0],[0.5,0,0],[0,0.5,0],[1,0.5,0]];labelBackgroundColor=none;rounded=0;html=1;whiteSpace=wrap;" vertex="1" parent="BmRDIqLE-ELyAQFLzGB0-42">
          <mxGeometry x="26.086956521739133" y="36.521739130434774" width="1.3043478260869565" height="15.652173913043477" as="geometry" />
        </mxCell>
        <mxCell id="BmRDIqLE-ELyAQFLzGB0-47" style="vsdxID=86;fillColor=#ff9300;gradientColor=none;fillOpacity=75;strokeOpacity=75;shape=stencil(hZPdDsIgDIWfhtsGCmzu2p/3MLo54twMzr+3lwnLoDq9aw8H8vWkMLm81NtzyZBfetsdy7vZ9zWTK4Zo2rq0pncVk2sml1Vny4Ptru3e9+ft4ByqU3cbXnj4exoUDpeQP73A393GexvTRt5CgV7Mm3dX618WwZ6DVsEuYj9/oG8FD8IzCMhBFcEjqScISkMxzzjZw3wKxC/IyR+EvACpUsx4EEo+YsbZEPKvnB+5EzflRFAkywkBk3BHRDeIFikkSZJmkxKmOdLUKR8Hjimfk7IsJYyGSJlHwCgV+Xcdf6+uK6adr0zT+C8Tn9M/4iT/v+T6BQ==);strokeColor=none;spacingTop=-3;spacingBottom=-3;spacingLeft=-3;spacingRight=-3;points=[[0.5,1.31,0],[0.5,0,0],[0,0.5,0],[1,0.5,0]];labelBackgroundColor=none;rounded=0;html=1;whiteSpace=wrap;" vertex="1" parent="BmRDIqLE-ELyAQFLzGB0-42">
          <mxGeometry x="20.869565217391305" y="18.260869565217387" width="18.26086956521739" height="1.3043478260869563" as="geometry" />
        </mxCell>
        <mxCell id="BmRDIqLE-ELyAQFLzGB0-48" style="vsdxID=87;fillColor=#ff9300;gradientColor=none;fillOpacity=75;strokeOpacity=75;shape=stencil(hZPbDoMgDIafhtsGWojzeof3WKabZE4Xpju8/XRghO50V+oH+foLgpaXansuBcpL59pjebNFVwlaCUTbVKWz3VAJWgta7ltXHlzbN4Vfn7cjOVan9jqecPf7DGgcN6F8+IZ8rTaerW0TsbkGs/gO73rnT1YBz8DogKuYl3f0SyVD4xEaKEHngSHOhIY2kH93nPEwnwb1S3LmQyPLwahUMx6Em0+acTbM/KPnW+6M5p4ImmU5K2AS7qQYD0IpQZ+zSQ3THHnq3E+CxNQv/pf4NkTqPAlGqdDf6/j76g7FfOf3tq79k4m/8zcytPz7ovUT);strokeColor=none;spacingTop=-3;spacingBottom=-3;spacingLeft=-3;spacingRight=-3;points=[[0.5,1.31,0],[0.5,0,0],[0,0.5,0],[1,0.5,0]];labelBackgroundColor=none;rounded=0;html=1;whiteSpace=wrap;" vertex="1" parent="BmRDIqLE-ELyAQFLzGB0-42">
          <mxGeometry x="20.869565217391305" y="22.17391304347826" width="18.26086956521739" height="1.3043478260869563" as="geometry" />
        </mxCell>
        <mxCell id="BmRDIqLE-ELyAQFLzGB0-50" style="edgeStyle=orthogonalEdgeStyle;rounded=0;orthogonalLoop=1;jettySize=auto;html=1;exitX=1;exitY=0.5;exitDx=0;exitDy=0;exitPerimeter=0;entryX=0.336;entryY=0.649;entryDx=0;entryDy=0;entryPerimeter=0;" edge="1" parent="BmRDIqLE-ELyAQFLzGB0-42" source="BmRDIqLE-ELyAQFLzGB0-48" target="BmRDIqLE-ELyAQFLzGB0-45">
          <mxGeometry relative="1" as="geometry" />
        </mxCell>
        <mxCell id="BmRDIqLE-ELyAQFLzGB0-49" value="&lt;div style=&quot;font-size: 1px&quot;&gt;&lt;font style=&quot;font-size:15.52px;font-family:Segoe UI;color:#000000;direction:ltr;letter-spacing:0px;line-height:120%;opacity:1&quot;&gt;SSO&lt;/font&gt;&lt;/div&gt;" style="text;vsdxID=80;fillColor=none;gradientColor=none;strokeColor=none;spacingTop=-3;spacingBottom=-3;spacingLeft=-3;spacingRight=-3;points=[[0.5,1.8,0],[0.5,0,0],[0,0.5,0],[1,0.5,0]];labelBackgroundColor=none;rounded=0;html=1;whiteSpace=wrap;verticalAlign=middle;align=center;overflow=width;;html=1;" vertex="1" parent="BmRDIqLE-ELyAQFLzGB0-41">
          <mxGeometry x="-35.778260869565216" y="60" width="132.52173913043478" height="48.599999999999994" as="geometry" />
        </mxCell>
        <UserObject label="" tags="Fundo" id="BmRDIqLE-ELyAQFLzGB0-52">
          <mxCell style="vsdxID=1085;edgeStyle=none;dashed=1;dashPattern=4.00 2.00;startArrow=none;endArrow=block;startSize=5;endSize=5;strokeWidth=2;strokeColor=#7f7f7f;spacingTop=0;spacingBottom=0;spacingLeft=0;spacingRight=0;verticalAlign=middle;html=1;labelBackgroundColor=#ffffff;rounded=0;" edge="1" parent="1">
            <mxGeometry relative="1" as="geometry">
              <Array as="points" />
              <mxPoint x="660" y="391" as="sourcePoint" />
              <mxPoint x="740" y="391" as="targetPoint" />
            </mxGeometry>
          </mxCell>
        </UserObject>
        <mxCell id="BmRDIqLE-ELyAQFLzGB0-53" value="&lt;div style=&quot;font-size: 1px&quot;&gt;&lt;/div&gt;" style="text;vsdxID=1085;edgeStyle=none;dashed=1;dashPattern=4.00 2.00;startArrow=none;endArrow=block;startSize=5;endSize=5;strokeWidth=2;strokeColor=none;spacingTop=0;spacingBottom=0;spacingLeft=0;spacingRight=0;verticalAlign=middle;html=1;labelBackgroundColor=#ffffff;rounded=0;align=center;fillColor=none;gradientColor=none;whiteSpace=wrap;;html=1;;rotation=270" vertex="1" parent="BmRDIqLE-ELyAQFLzGB0-52">
          <mxGeometry width="62.31" relative="1" as="geometry">
            <mxPoint x="-31.155" as="offset" />
          </mxGeometry>
        </mxCell>
        <mxCell id="BmRDIqLE-ELyAQFLzGB0-54" value="Acesso Seguro" style="text;html=1;align=center;verticalAlign=middle;whiteSpace=wrap;rounded=0;fontSize=9;" vertex="1" parent="1">
          <mxGeometry x="440" y="401" width="90" height="20" as="geometry" />
        </mxCell>
        <mxCell id="BmRDIqLE-ELyAQFLzGB0-55" value="&lt;span style=&quot;font-size: 8px; text-wrap: nowrap; background-color: rgb(255, 255, 255);&quot;&gt;VPN/IPSec&lt;/span&gt;" style="text;html=1;align=center;verticalAlign=middle;whiteSpace=wrap;rounded=0;fontSize=8;" vertex="1" parent="1">
          <mxGeometry x="650" y="373" width="90" height="20" as="geometry" />
        </mxCell>
        <mxCell id="BmRDIqLE-ELyAQFLzGB0-57" value="&lt;span style=&quot;color: rgb(0, 0, 0); font-family: Helvetica; font-size: 13px; font-style: normal; font-variant-ligatures: normal; font-variant-caps: normal; font-weight: 400; letter-spacing: normal; orphans: 2; text-align: center; text-indent: 0px; text-transform: none; widows: 2; word-spacing: 0px; -webkit-text-stroke-width: 0px; white-space: nowrap; background-color: rgb(255, 255, 255); text-decoration-thickness: initial; text-decoration-style: initial; text-decoration-color: initial; display: inline !important; float: none;&quot;&gt;AutenticaÃ§Ã£o/AutorizaÃ§Ã£o&lt;/span&gt;" style="text;whiteSpace=wrap;html=1;" vertex="1" parent="1">
          <mxGeometry x="483.5" y="560" width="180" height="40" as="geometry" />
        </mxCell>
        <mxCell id="BmRDIqLE-ELyAQFLzGB0-58" value="" style="verticalLabelPosition=bottom;html=1;verticalAlign=top;align=center;strokeColor=none;fillColor=#00BEF2;shape=mxgraph.azure.user;" vertex="1" parent="1">
          <mxGeometry x="986" y="206" width="40" height="40" as="geometry" />
        </mxCell>
        <mxCell id="BmRDIqLE-ELyAQFLzGB0-59" value="&lt;span style=&quot;color: rgb(0, 0, 0); font-family: Helvetica; font-size: 10px; font-style: normal; font-variant-ligatures: normal; font-variant-caps: normal; letter-spacing: normal; orphans: 2; text-align: center; text-indent: 0px; text-transform: none; widows: 2; word-spacing: 0px; -webkit-text-stroke-width: 0px; white-space: normal; background-color: rgb(251, 251, 251); text-decoration-thickness: initial; text-decoration-style: initial; text-decoration-color: initial; float: none; display: inline !important;&quot;&gt;UsuÃ¡rios do&lt;/span&gt;&lt;div style=&quot;text-align: center;&quot;&gt;&lt;span style=&quot;color: rgb(0, 0, 0); font-family: Helvetica; font-size: 10px; font-style: normal; font-variant-ligatures: normal; font-variant-caps: normal; letter-spacing: normal; orphans: 2; text-indent: 0px; text-transform: none; widows: 2; word-spacing: 0px; -webkit-text-stroke-width: 0px; white-space: normal; background-color: rgb(251, 251, 251); text-decoration-thickness: initial; text-decoration-style: initial; text-decoration-color: initial; float: none; display: inline !important;&quot;&gt;&amp;nbsp;ArmazÃ©m&lt;/span&gt;&lt;/div&gt;" style="text;whiteSpace=wrap;html=1;fontStyle=0;fontSize=10;" vertex="1" parent="1">
          <mxGeometry x="1030" y="206" width="60" height="40" as="geometry" />
        </mxCell>
        <mxCell id="BmRDIqLE-ELyAQFLzGB0-62" value="" style="sketch=0;pointerEvents=1;shadow=0;dashed=0;html=1;strokeColor=none;fillColor=#66bdff;labelPosition=center;verticalLabelPosition=bottom;verticalAlign=top;align=center;outlineConnect=0;shape=mxgraph.veeam2.datacenter;" vertex="1" parent="1">
          <mxGeometry x="320" y="206" width="83" height="53" as="geometry" />
        </mxCell>
        <UserObject label="" tags="Fundo" id="BmRDIqLE-ELyAQFLzGB0-66">
          <mxCell style="vsdxID=1085;edgeStyle=none;dashed=1;dashPattern=4.00 2.00;startArrow=none;endArrow=block;startSize=5;endSize=5;strokeWidth=2;strokeColor=#7f7f7f;spacingTop=0;spacingBottom=0;spacingLeft=0;spacingRight=0;verticalAlign=middle;html=1;labelBackgroundColor=#ffffff;rounded=0;" edge="1" parent="1">
            <mxGeometry relative="1" as="geometry">
              <Array as="points">
                <mxPoint x="470" y="381" />
              </Array>
              <mxPoint x="550" y="381" as="sourcePoint" />
              <mxPoint x="440" y="381" as="targetPoint" />
            </mxGeometry>
          </mxCell>
        </UserObject>
        <mxCell id="BmRDIqLE-ELyAQFLzGB0-67" value="&lt;div style=&quot;font-size: 1px&quot;&gt;&lt;/div&gt;" style="text;vsdxID=1085;edgeStyle=none;dashed=1;dashPattern=4.00 2.00;startArrow=none;endArrow=block;startSize=5;endSize=5;strokeWidth=2;strokeColor=none;spacingTop=0;spacingBottom=0;spacingLeft=0;spacingRight=0;verticalAlign=middle;html=1;labelBackgroundColor=#ffffff;rounded=0;align=center;fillColor=none;gradientColor=none;whiteSpace=wrap;;html=1;;rotation=270" vertex="1" parent="BmRDIqLE-ELyAQFLzGB0-66">
          <mxGeometry width="62.31" relative="1" as="geometry">
            <mxPoint x="-31.155" as="offset" />
          </mxGeometry>
        </mxCell>
        <mxCell id="BmRDIqLE-ELyAQFLzGB0-74" value="" style="outlineConnect=0;dashed=0;verticalLabelPosition=bottom;verticalAlign=top;align=center;html=1;shape=mxgraph.aws3.application_load_balancer;fillColor=#37c6f6;gradientColor=none;" vertex="1" parent="1">
          <mxGeometry x="670" y="226" width="50" height="49" as="geometry" />
        </mxCell>
        <UserObject label="" tags="Fundo" id="BmRDIqLE-ELyAQFLzGB0-75">
          <mxCell style="vsdxID=1085;edgeStyle=none;dashed=1;dashPattern=4.00 2.00;startArrow=none;endArrow=block;startSize=5;endSize=5;strokeWidth=2;strokeColor=#7f7f7f;spacingTop=0;spacingBottom=0;spacingLeft=0;spacingRight=0;verticalAlign=middle;html=1;labelBackgroundColor=#ffffff;rounded=0;entryX=0;entryY=0.5;entryDx=0;entryDy=0;entryPerimeter=0;" edge="1" parent="1" target="BmRDIqLE-ELyAQFLzGB0-74">
            <mxGeometry relative="1" as="geometry">
              <Array as="points" />
              <mxPoint x="403" y="250.21000000000004" as="sourcePoint" />
              <mxPoint x="760" y="246" as="targetPoint" />
            </mxGeometry>
          </mxCell>
        </UserObject>
        <mxCell id="BmRDIqLE-ELyAQFLzGB0-76" value="&lt;div style=&quot;font-size: 1px&quot;&gt;&lt;/div&gt;" style="text;vsdxID=1085;edgeStyle=none;dashed=1;dashPattern=4.00 2.00;startArrow=none;endArrow=block;startSize=5;endSize=5;strokeWidth=2;strokeColor=none;spacingTop=0;spacingBottom=0;spacingLeft=0;spacingRight=0;verticalAlign=middle;html=1;labelBackgroundColor=#ffffff;rounded=0;align=center;fillColor=none;gradientColor=none;whiteSpace=wrap;;html=1;;rotation=270" vertex="1" parent="BmRDIqLE-ELyAQFLzGB0-75">
          <mxGeometry width="62.31" relative="1" as="geometry">
            <mxPoint x="-31.155" as="offset" />
          </mxGeometry>
        </mxCell>
        <mxCell id="BmRDIqLE-ELyAQFLzGB0-78" value="&lt;span style=&quot;color: rgb(0, 0, 0); font-family: Helvetica; font-size: 9px; font-style: normal; font-variant-ligatures: normal; font-variant-caps: normal; letter-spacing: normal; orphans: 2; text-align: center; text-indent: 0px; text-transform: none; widows: 2; word-spacing: 0px; -webkit-text-stroke-width: 0px; white-space: normal; background-color: rgb(251, 251, 251); text-decoration-thickness: initial; text-decoration-style: initial; text-decoration-color: initial; float: none; display: inline !important;&quot;&gt;Rede Local&lt;/span&gt;" style="text;whiteSpace=wrap;html=1;fontSize=9;fontStyle=0" vertex="1" parent="1">
          <mxGeometry x="670" y="275" width="50" height="20" as="geometry" />
        </mxCell>
        <mxCell id="BmRDIqLE-ELyAQFLzGB0-82" style="edgeStyle=orthogonalEdgeStyle;rounded=0;orthogonalLoop=1;jettySize=auto;html=1;" edge="1" parent="1">
          <mxGeometry relative="1" as="geometry">
            <mxPoint x="670" y="246.0588235294117" as="targetPoint" />
            <mxPoint x="451.9411764705883" y="145" as="sourcePoint" />
            <Array as="points">
              <mxPoint x="452" y="146" />
              <mxPoint x="660" y="146" />
              <mxPoint x="660" y="246" />
            </Array>
          </mxGeometry>
        </mxCell>
        <mxCell id="BmRDIqLE-ELyAQFLzGB0-79" value="" style="sketch=0;aspect=fixed;pointerEvents=1;shadow=0;dashed=0;html=1;strokeColor=none;labelPosition=center;verticalLabelPosition=bottom;verticalAlign=top;align=center;fillColor=#009dff;shape=mxgraph.mscae.enterprise.server_generic" vertex="1" parent="1">
          <mxGeometry x="440" y="90" width="24" height="50" as="geometry" />
        </mxCell>
        <mxCell id="BmRDIqLE-ELyAQFLzGB0-81" style="edgeStyle=orthogonalEdgeStyle;rounded=0;orthogonalLoop=1;jettySize=auto;html=1;" edge="1" parent="1" source="BmRDIqLE-ELyAQFLzGB0-80" target="BmRDIqLE-ELyAQFLzGB0-74">
          <mxGeometry relative="1" as="geometry" />
        </mxCell>
        <mxCell id="BmRDIqLE-ELyAQFLzGB0-80" value="" style="sketch=0;aspect=fixed;pointerEvents=1;shadow=0;dashed=0;html=1;strokeColor=none;labelPosition=center;verticalLabelPosition=bottom;verticalAlign=top;align=center;fillColor=#009dff;shape=mxgraph.mscae.enterprise.server_generic" vertex="1" parent="1">
          <mxGeometry x="542.5" y="90" width="24" height="50" as="geometry" />
        </mxCell>
        <mxCell id="BmRDIqLE-ELyAQFLzGB0-83" value="&lt;span style=&quot;color: rgb(0, 0, 0); font-family: Helvetica; font-size: 9px; font-style: normal; font-variant-ligatures: normal; font-variant-caps: normal; letter-spacing: normal; orphans: 2; text-align: center; text-indent: 0px; text-transform: none; widows: 2; word-spacing: 0px; -webkit-text-stroke-width: 0px; white-space: normal; background-color: rgb(251, 251, 251); text-decoration-thickness: initial; text-decoration-style: initial; text-decoration-color: initial; float: none; display: inline !important;&quot;&gt;Print Server&lt;/span&gt;" style="text;whiteSpace=wrap;html=1;fontStyle=0;fontSize=9;" vertex="1" parent="1">
          <mxGeometry x="529.5" y="70" width="50" height="20" as="geometry" />
        </mxCell>
        <mxCell id="BmRDIqLE-ELyAQFLzGB0-84" value="&lt;span style=&quot;color: rgb(0, 0, 0); font-family: Helvetica; font-size: 9px; font-style: normal; font-variant-ligatures: normal; font-variant-caps: normal; letter-spacing: normal; orphans: 2; text-align: center; text-indent: 0px; text-transform: none; widows: 2; word-spacing: 0px; -webkit-text-stroke-width: 0px; white-space: normal; background-color: rgb(251, 251, 251); text-decoration-thickness: initial; text-decoration-style: initial; text-decoration-color: initial; float: none; display: inline !important;&quot;&gt;File Server&lt;/span&gt;" style="text;whiteSpace=wrap;html=1;fontSize=9;fontStyle=0" vertex="1" parent="1">
          <mxGeometry x="427" y="70" width="50" height="20" as="geometry" />
        </mxCell>
        <mxCell id="BmRDIqLE-ELyAQFLzGB0-86" value="&lt;span style=&quot;color: rgb(0, 0, 0); font-family: Helvetica; font-size: 7px; font-style: normal; font-variant-ligatures: normal; font-variant-caps: normal; font-weight: 400; letter-spacing: normal; orphans: 2; text-align: center; text-indent: 0px; text-transform: none; widows: 2; word-spacing: 0px; -webkit-text-stroke-width: 0px; white-space: nowrap; background-color: rgb(255, 255, 255); text-decoration-thickness: initial; text-decoration-style: initial; text-decoration-color: initial; float: none; display: inline !important;&quot;&gt;Armazenamento/Compartilhamento&lt;/span&gt;" style="text;whiteSpace=wrap;html=1;fontSize=7;" vertex="1" parent="1">
          <mxGeometry x="571.5" y="98" width="133.5" height="20" as="geometry" />
        </mxCell>
        <mxCell id="BmRDIqLE-ELyAQFLzGB0-88" value="&lt;span style=&quot;color: rgb(0, 0, 0); font-family: Helvetica; font-size: 8px; font-style: normal; font-variant-ligatures: normal; font-variant-caps: normal; font-weight: 400; letter-spacing: normal; orphans: 2; text-align: center; text-indent: 0px; text-transform: none; widows: 2; word-spacing: 0px; -webkit-text-stroke-width: 0px; white-space: nowrap; background-color: rgb(255, 255, 255); text-decoration-thickness: initial; text-decoration-style: initial; text-decoration-color: initial; float: none; display: inline !important;&quot;&gt;Gerenciamento de ImpressÃµes&lt;/span&gt;" style="text;whiteSpace=wrap;html=1;fontSize=8;" vertex="1" parent="1">
          <mxGeometry x="450" y="150" width="110" height="20" as="geometry" />
        </mxCell>
        <mxCell id="BmRDIqLE-ELyAQFLzGB0-90" style="edgeStyle=orthogonalEdgeStyle;rounded=0;orthogonalLoop=1;jettySize=auto;html=1;entryX=0.611;entryY=0.039;entryDx=0;entryDy=0;entryPerimeter=0;" edge="1" parent="1" source="BmRDIqLE-ELyAQFLzGB0-74" target="BmRDIqLE-ELyAQFLzGB0-58">
          <mxGeometry relative="1" as="geometry" />
        </mxCell>
        <mxCell id="BmRDIqLE-ELyAQFLzGB0-91" style="edgeStyle=orthogonalEdgeStyle;rounded=0;orthogonalLoop=1;jettySize=auto;html=1;entryX=0.396;entryY=0.525;entryDx=0;entryDy=0;entryPerimeter=0;" edge="1" parent="1" source="BmRDIqLE-ELyAQFLzGB0-44" target="BmRDIqLE-ELyAQFLzGB0-58">
          <mxGeometry relative="1" as="geometry" />
        </mxCell>
        <mxCell id="BmRDIqLE-ELyAQFLzGB0-92" value="&lt;span style=&quot;color: rgb(0, 0, 0); font-family: Helvetica; font-size: 10px; font-style: normal; font-variant-ligatures: normal; font-variant-caps: normal; font-weight: 400; letter-spacing: normal; orphans: 2; text-align: center; text-indent: 0px; text-transform: none; widows: 2; word-spacing: 0px; -webkit-text-stroke-width: 0px; white-space: nowrap; background-color: rgb(255, 255, 255); text-decoration-thickness: initial; text-decoration-style: initial; text-decoration-color: initial; float: none; display: inline !important;&quot;&gt;MFA&lt;/span&gt;" style="text;whiteSpace=wrap;html=1;fontSize=10;" vertex="1" parent="1">
          <mxGeometry x="830" y="371" width="40" height="20" as="geometry" />
        </mxCell>
        <UserObject label="" tags="Fundo" id="BmRDIqLE-ELyAQFLzGB0-93">
          <mxCell style="vsdxID=1102;fillColor=none;gradientColor=none;strokeColor=none;points=[];labelBackgroundColor=none;rounded=0;html=1;whiteSpace=wrap;fontSize=8;" vertex="1" parent="1">
            <mxGeometry x="340" y="1051" width="160" height="50" as="geometry" />
          </mxCell>
        </UserObject>
        <mxCell id="BmRDIqLE-ELyAQFLzGB0-106" value="&lt;div style=&quot;font-size: 15px;&quot;&gt;&lt;font style=&quot;font-size: 15px; font-family: &amp;quot;Segoe UI Semibold&amp;quot;; color: rgb(127, 127, 127); direction: ltr; letter-spacing: 0px; line-height: 120%; opacity: 1;&quot;&gt;Microsoft&lt;br&gt;Azure&lt;br&gt;&lt;/font&gt;&lt;/div&gt;" style="verticalAlign=middle;align=center;overflow=width;vsdxID=1114;fillColor=none;gradientColor=none;shape=stencil(nZBLDoAgDERP0z3SIyjew0SURgSD+Lu9kMZoXLhwN9O+tukAlrNpJg1SzDH4QW/URgNYgZTkjA4UkwJUgGXng+6DX1zLfmoymdXo17xh5zmRJ6Q42BWCfc2oJfdAr+Yv+AP9Cb7OJ3H/2JG1HNGz/84klThPVCc=);strokeColor=none;points=[];labelBackgroundColor=none;rounded=0;html=1;whiteSpace=wrap;" vertex="1" parent="BmRDIqLE-ELyAQFLzGB0-93">
          <mxGeometry x="60.00042253521126" y="-10" width="113.80281690140845" height="50" as="geometry" />
        </mxCell>
        <mxCell id="BmRDIqLE-ELyAQFLzGB0-112" value="" style="verticalLabelPosition=bottom;html=1;verticalAlign=top;align=center;strokeColor=none;fillColor=#00BEF2;shape=mxgraph.azure.cloud;" vertex="1" parent="BmRDIqLE-ELyAQFLzGB0-93">
          <mxGeometry x="-14.5" y="-10" width="80" height="49" as="geometry" />
        </mxCell>
        <mxCell id="BmRDIqLE-ELyAQFLzGB0-167" style="edgeStyle=orthogonalEdgeStyle;rounded=0;orthogonalLoop=1;jettySize=auto;html=1;" edge="1" parent="1" source="BmRDIqLE-ELyAQFLzGB0-107" target="BmRDIqLE-ELyAQFLzGB0-153">
          <mxGeometry relative="1" as="geometry" />
        </mxCell>
        <mxCell id="BmRDIqLE-ELyAQFLzGB0-107" value="" style="html=1;verticalLabelPosition=bottom;align=center;labelBackgroundColor=#ffffff;verticalAlign=top;strokeWidth=2;strokeColor=#00b4f0;shadow=0;dashed=0;shape=mxgraph.ios7.icons.wifi;pointerEvents=1" vertex="1" parent="1">
          <mxGeometry x="1162.65" y="316.5" width="44.7" height="34.5" as="geometry" />
        </mxCell>
        <mxCell id="BmRDIqLE-ELyAQFLzGB0-108" style="edgeStyle=orthogonalEdgeStyle;rounded=0;orthogonalLoop=1;jettySize=auto;html=1;entryX=0.87;entryY=0.65;entryDx=0;entryDy=0;entryPerimeter=0;" edge="1" parent="1" source="BmRDIqLE-ELyAQFLzGB0-107" target="BmRDIqLE-ELyAQFLzGB0-58">
          <mxGeometry relative="1" as="geometry" />
        </mxCell>
        <mxCell id="BmRDIqLE-ELyAQFLzGB0-110" value="&lt;span style=&quot;color: rgb(0, 0, 0); font-family: Helvetica; font-size: 13px; font-style: normal; font-variant-ligatures: normal; font-variant-caps: normal; font-weight: 400; letter-spacing: normal; orphans: 2; text-align: center; text-indent: 0px; text-transform: none; widows: 2; word-spacing: 0px; -webkit-text-stroke-width: 0px; white-space: nowrap; background-color: rgb(255, 255, 255); text-decoration-thickness: initial; text-decoration-style: initial; text-decoration-color: initial; display: inline !important; float: none;&quot;&gt;Acesso via SSO&lt;/span&gt;" style="text;whiteSpace=wrap;html=1;" vertex="1" parent="1">
          <mxGeometry x="1026" y="301" width="130" height="40" as="geometry" />
        </mxCell>
        <mxCell id="BmRDIqLE-ELyAQFLzGB0-111" value="&lt;span style=&quot;color: rgb(0, 0, 0); font-family: Helvetica; font-size: 9px; font-style: normal; font-variant-ligatures: normal; font-variant-caps: normal; font-weight: 700; letter-spacing: normal; orphans: 2; text-align: center; text-indent: 0px; text-transform: none; widows: 2; word-spacing: 0px; -webkit-text-stroke-width: 0px; white-space: normal; background-color: rgb(251, 251, 251); text-decoration-thickness: initial; text-decoration-style: initial; text-decoration-color: initial; float: none; display: inline !important;&quot;&gt;WiFi&lt;/span&gt;" style="text;whiteSpace=wrap;html=1;fontSize=9;" vertex="1" parent="1">
          <mxGeometry x="1170" y="295" width="30" height="20" as="geometry" />
        </mxCell>
        <UserObject label="" tags="Fundo" id="BmRDIqLE-ELyAQFLzGB0-113">
          <mxCell style="vsdxID=1086;edgeStyle=none;dashed=1;dashPattern=4.00 2.00;startArrow=none;endArrow=block;startSize=5;endSize=5;strokeWidth=2;strokeColor=#7f7f7f;spacingTop=0;spacingBottom=0;spacingLeft=0;spacingRight=0;verticalAlign=middle;html=1;labelBackgroundColor=#ffffff;rounded=0;entryX=0.509090909090909;entryY=0;entryDx=0;entryDy=0;entryPerimeter=0;" edge="1" parent="1">
            <mxGeometry relative="1" as="geometry">
              <Array as="points" />
              <mxPoint x="378" y="798" as="sourcePoint" />
              <mxPoint x="378" y="889" as="targetPoint" />
            </mxGeometry>
          </mxCell>
        </UserObject>
        <mxCell id="BmRDIqLE-ELyAQFLzGB0-114" value="&lt;div style=&quot;font-size: 1px&quot;&gt;&lt;/div&gt;" style="text;vsdxID=1086;edgeStyle=none;dashed=1;dashPattern=4.00 2.00;startArrow=none;endArrow=block;startSize=5;endSize=5;strokeWidth=2;strokeColor=none;spacingTop=0;spacingBottom=0;spacingLeft=0;spacingRight=0;verticalAlign=middle;html=1;labelBackgroundColor=#ffffff;rounded=0;align=center;fillColor=none;gradientColor=none;whiteSpace=wrap;;html=1;;rotation=270.0000008371587" vertex="1" parent="BmRDIqLE-ELyAQFLzGB0-113">
          <mxGeometry width="90.83" relative="1" as="geometry">
            <mxPoint x="-45.415" as="offset" />
          </mxGeometry>
        </mxCell>
        <mxCell id="BmRDIqLE-ELyAQFLzGB0-121" value="" style="shadow=0;dashed=0;html=1;strokeColor=none;fillColor=#4495D1;labelPosition=center;verticalLabelPosition=bottom;verticalAlign=top;align=center;outlineConnect=0;shape=mxgraph.veeam.2d.virtual_machine;" vertex="1" parent="1">
          <mxGeometry x="595" y="841" width="77" height="70" as="geometry" />
        </mxCell>
        <mxCell id="BmRDIqLE-ELyAQFLzGB0-162" value="&lt;span style=&quot;color: rgb(0, 0, 0); font-family: Helvetica; font-size: 13px; font-style: normal; font-variant-ligatures: normal; font-variant-caps: normal; font-weight: 400; letter-spacing: normal; orphans: 2; text-align: center; text-indent: 0px; text-transform: none; widows: 2; word-spacing: 0px; -webkit-text-stroke-width: 0px; white-space: nowrap; background-color: rgb(255, 255, 255); text-decoration-thickness: initial; text-decoration-style: initial; text-decoration-color: initial; display: inline !important; float: none;&quot;&gt;LÃ³gica de NegÃ³cios&lt;/span&gt;" style="edgeStyle=orthogonalEdgeStyle;rounded=0;orthogonalLoop=1;jettySize=auto;html=1;entryX=0.75;entryY=1;entryDx=0;entryDy=0;" edge="1" parent="1" source="BmRDIqLE-ELyAQFLzGB0-122" target="BmRDIqLE-ELyAQFLzGB0-160">
          <mxGeometry x="-0.3676" y="15" relative="1" as="geometry">
            <mxPoint x="1025" y="848" as="sourcePoint" />
            <mxPoint x="-1" as="offset" />
          </mxGeometry>
        </mxCell>
        <mxCell id="BmRDIqLE-ELyAQFLzGB0-122" value="" style="shadow=0;dashed=0;html=1;strokeColor=none;fillColor=#4495D1;labelPosition=center;verticalLabelPosition=bottom;verticalAlign=top;align=center;outlineConnect=0;shape=mxgraph.veeam.2d.virtual_machine;" vertex="1" parent="1">
          <mxGeometry x="810" y="841" width="77" height="70" as="geometry" />
        </mxCell>
        <mxCell id="BmRDIqLE-ELyAQFLzGB0-179" style="rounded=0;orthogonalLoop=1;jettySize=auto;html=1;" edge="1" parent="1" source="BmRDIqLE-ELyAQFLzGB0-124" target="BmRDIqLE-ELyAQFLzGB0-178">
          <mxGeometry relative="1" as="geometry">
            <mxPoint x="660" y="751" as="targetPoint" />
          </mxGeometry>
        </mxCell>
        <mxCell id="BmRDIqLE-ELyAQFLzGB0-124" value="&lt;span style=&quot;color: rgb(0, 0, 0); font-family: Helvetica; font-style: normal; font-variant-ligatures: normal; font-variant-caps: normal; font-weight: 700; letter-spacing: normal; orphans: 2; text-align: center; text-indent: 0px; text-transform: none; widows: 2; word-spacing: 0px; -webkit-text-stroke-width: 0px; white-space: normal; background-color: rgb(251, 251, 251); text-decoration-thickness: initial; text-decoration-style: initial; text-decoration-color: initial; float: none; display: inline !important;&quot;&gt;&lt;font style=&quot;font-size: 13px;&quot;&gt;MySQL VM&lt;/font&gt;&lt;/span&gt;" style="text;whiteSpace=wrap;html=1;" vertex="1" parent="1">
          <mxGeometry x="595" y="811.5" width="81.5" height="36.5" as="geometry" />
        </mxCell>
        <mxCell id="BmRDIqLE-ELyAQFLzGB0-125" value="&lt;span style=&quot;color: rgb(0, 0, 0); font-family: Helvetica; font-size: 11px; font-style: normal; font-variant-ligatures: normal; font-variant-caps: normal; font-weight: 700; letter-spacing: normal; orphans: 2; text-align: center; text-indent: 0px; text-transform: none; widows: 2; word-spacing: 0px; -webkit-text-stroke-width: 0px; white-space: normal; background-color: rgb(251, 251, 251); text-decoration-thickness: initial; text-decoration-style: initial; text-decoration-color: initial; float: none; display: inline !important;&quot;&gt;Backend VM (Dotnet 8)&lt;/span&gt;" style="text;whiteSpace=wrap;html=1;fontSize=11;" vertex="1" parent="1">
          <mxGeometry x="771" y="806" width="100" height="30" as="geometry" />
        </mxCell>
        <mxCell id="BmRDIqLE-ELyAQFLzGB0-129" value="&lt;span style=&quot;color: rgb(0, 0, 0); font-family: Helvetica; font-size: 11px; font-style: normal; font-variant-ligatures: normal; font-variant-caps: normal; font-weight: 400; letter-spacing: normal; orphans: 2; text-align: center; text-indent: 0px; text-transform: none; widows: 2; word-spacing: 0px; -webkit-text-stroke-width: 0px; white-space: nowrap; background-color: rgb(255, 255, 255); text-decoration-thickness: initial; text-decoration-style: initial; text-decoration-color: initial; float: none; display: inline !important;&quot;&gt;DB-MYSQL&lt;/span&gt;&lt;div&gt;&lt;span style=&quot;color: rgb(0, 0, 0); font-family: Helvetica; font-size: 11px; font-style: normal; font-variant-ligatures: normal; font-variant-caps: normal; font-weight: 400; letter-spacing: normal; orphans: 2; text-align: center; text-indent: 0px; text-transform: none; widows: 2; word-spacing: 0px; -webkit-text-stroke-width: 0px; white-space: nowrap; background-color: rgb(255, 255, 255); text-decoration-thickness: initial; text-decoration-style: initial; text-decoration-color: initial; float: none; display: inline !important;&quot;&gt;&lt;br&gt;&lt;/span&gt;&lt;/div&gt;" style="text;whiteSpace=wrap;html=1;fontSize=11;" vertex="1" parent="1">
          <mxGeometry x="685" y="702.5" width="68" height="14.5" as="geometry" />
        </mxCell>
        <mxCell id="BmRDIqLE-ELyAQFLzGB0-130" value="&lt;span style=&quot;color: rgb(0, 0, 0); font-family: Helvetica; font-size: 13px; font-style: normal; font-variant-ligatures: normal; font-variant-caps: normal; font-weight: 400; letter-spacing: normal; orphans: 2; text-align: center; text-indent: 0px; text-transform: none; widows: 2; word-spacing: 0px; -webkit-text-stroke-width: 0px; white-space: nowrap; background-color: rgb(255, 255, 255); text-decoration-thickness: initial; text-decoration-style: initial; text-decoration-color: initial; display: inline !important; float: none;&quot;&gt;VMs Seguras/EscalÃ¡veis&lt;/span&gt;" style="text;whiteSpace=wrap;html=1;" vertex="1" parent="1">
          <mxGeometry x="483.5" y="961" width="180" height="40" as="geometry" />
        </mxCell>
        <mxCell id="BmRDIqLE-ELyAQFLzGB0-131" style="edgeStyle=orthogonalEdgeStyle;rounded=0;orthogonalLoop=1;jettySize=auto;html=1;" edge="1" parent="1" source="BmRDIqLE-ELyAQFLzGB0-106" target="BmRDIqLE-ELyAQFLzGB0-121">
          <mxGeometry relative="1" as="geometry" />
        </mxCell>
        <mxCell id="BmRDIqLE-ELyAQFLzGB0-152" value="" style="image;aspect=fixed;html=1;points=[];align=center;fontSize=12;image=img/lib/azure2/app_services/App_Services.svg;" vertex="1" parent="1">
          <mxGeometry x="1140" y="521" width="57" height="57" as="geometry" />
        </mxCell>
        <mxCell id="BmRDIqLE-ELyAQFLzGB0-153" value="&lt;span style=&quot;color: rgb(0, 0, 0); font-family: &amp;quot;Segoe UI&amp;quot;; font-size: 15.52px; font-style: normal; font-variant-ligatures: normal; font-variant-caps: normal; font-weight: 400; letter-spacing: normal; orphans: 2; text-align: center; text-indent: 0px; text-transform: none; widows: 2; word-spacing: 0px; -webkit-text-stroke-width: 0px; white-space: normal; background-color: rgb(251, 251, 251); text-decoration-thickness: initial; text-decoration-style: initial; text-decoration-color: initial; display: inline !important; float: none;&quot;&gt;App Service&lt;/span&gt;&lt;br style=&quot;color: rgb(0, 0, 0); font-family: &amp;quot;Segoe UI&amp;quot;; font-size: 15.52px; font-style: normal; font-variant-ligatures: normal; font-variant-caps: normal; font-weight: 400; letter-spacing: normal; orphans: 2; text-align: center; text-indent: 0px; text-transform: none; widows: 2; word-spacing: 0px; -webkit-text-stroke-width: 0px; white-space: normal; text-decoration-thickness: initial; text-decoration-style: initial; text-decoration-color: initial;&quot;&gt;&lt;span style=&quot;color: rgb(0, 0, 0); font-family: &amp;quot;Segoe UI&amp;quot;; font-size: 15.52px; font-style: normal; font-variant-ligatures: normal; font-variant-caps: normal; font-weight: 400; letter-spacing: normal; orphans: 2; text-align: center; text-indent: 0px; text-transform: none; widows: 2; word-spacing: 0px; -webkit-text-stroke-width: 0px; white-space: normal; background-color: rgb(251, 251, 251); text-decoration-thickness: initial; text-decoration-style: initial; text-decoration-color: initial; display: inline !important; float: none;&quot;&gt;web app&lt;/span&gt;" style="text;whiteSpace=wrap;html=1;" vertex="1" parent="1">
          <mxGeometry x="1130" y="471" width="110" height="60" as="geometry" />
        </mxCell>
        <mxCell id="BmRDIqLE-ELyAQFLzGB0-157" style="edgeStyle=orthogonalEdgeStyle;rounded=0;orthogonalLoop=1;jettySize=auto;html=1;" edge="1" parent="1" source="BmRDIqLE-ELyAQFLzGB0-154">
          <mxGeometry relative="1" as="geometry">
            <mxPoint x="1020" y="705" as="targetPoint" />
          </mxGeometry>
        </mxCell>
        <mxCell id="BmRDIqLE-ELyAQFLzGB0-154" value="" style="aspect=fixed;sketch=0;html=1;dashed=0;whitespace=wrap;fillColor=#2875E2;strokeColor=#ffffff;points=[[0.005,0.63,0],[0.1,0.2,0],[0.9,0.2,0],[0.5,0,0],[0.995,0.63,0],[0.72,0.99,0],[0.5,1,0],[0.28,0.99,0]];shape=mxgraph.kubernetes.icon2;prIcon=node" vertex="1" parent="1">
          <mxGeometry x="799.0799999999999" y="671" width="72.92" height="70" as="geometry" />
        </mxCell>
        <UserObject label="&lt;span style=&quot;color: rgb(0, 0, 0); font-family: Helvetica; font-size: 9px; font-style: normal; font-variant-ligatures: normal; font-variant-caps: normal; font-weight: 700; letter-spacing: normal; orphans: 2; text-align: center; text-indent: 0px; text-transform: none; widows: 2; word-spacing: 0px; -webkit-text-stroke-width: 0px; white-space: normal; background-color: rgb(251, 251, 251); text-decoration-thickness: initial; text-decoration-style: initial; text-decoration-color: initial; float: none; display: inline !important;&quot;&gt;Frontend Node.js&lt;/span&gt;" link="&lt;span style=&quot;color: rgb(0, 0, 0); font-family: Helvetica; font-size: 15px; font-style: normal; font-variant-ligatures: normal; font-variant-caps: normal; font-weight: 700; letter-spacing: normal; orphans: 2; text-align: center; text-indent: 0px; text-transform: none; widows: 2; word-spacing: 0px; -webkit-text-stroke-width: 0px; white-space: normal; background-color: rgb(251, 251, 251); text-decoration-thickness: initial; text-decoration-style: initial; text-decoration-color: initial; display: inline !important; float: none;&quot;&gt;Frontend Node.js&lt;/span&gt;" id="BmRDIqLE-ELyAQFLzGB0-158">
          <mxCell style="text;whiteSpace=wrap;html=1;fontSize=9;" vertex="1" parent="1">
            <mxGeometry x="795.54" y="648" width="80" height="23" as="geometry" />
          </mxCell>
        </UserObject>
        <mxCell id="BmRDIqLE-ELyAQFLzGB0-159" value="&lt;span style=&quot;color: rgb(0, 0, 0); font-family: Helvetica; font-size: 9px; font-style: normal; font-variant-ligatures: normal; font-variant-caps: normal; letter-spacing: normal; orphans: 2; text-align: center; text-indent: 0px; text-transform: none; widows: 2; word-spacing: 0px; -webkit-text-stroke-width: 0px; white-space: nowrap; background-color: rgb(255, 255, 255); text-decoration-thickness: initial; text-decoration-style: initial; text-decoration-color: initial; float: none; display: inline !important;&quot;&gt;Interface do UsuÃ¡rio&lt;/span&gt;" style="text;whiteSpace=wrap;html=1;fontSize=9;fontStyle=1" vertex="1" parent="1">
          <mxGeometry x="870" y="682.5" width="100" height="20" as="geometry" />
        </mxCell>
        <mxCell id="BmRDIqLE-ELyAQFLzGB0-164" style="edgeStyle=orthogonalEdgeStyle;rounded=0;orthogonalLoop=1;jettySize=auto;html=1;" edge="1" parent="1" source="BmRDIqLE-ELyAQFLzGB0-160">
          <mxGeometry relative="1" as="geometry">
            <mxPoint x="1175" y="581" as="targetPoint" />
          </mxGeometry>
        </mxCell>
        <mxCell id="BmRDIqLE-ELyAQFLzGB0-160" value="" style="image;aspect=fixed;perimeter=ellipsePerimeter;html=1;align=center;shadow=0;dashed=0;spacingTop=3;image=img/lib/active_directory/generic_node.svg;" vertex="1" parent="1">
          <mxGeometry x="1026" y="676.75" width="59.69" height="58.5" as="geometry" />
        </mxCell>
        <mxCell id="BmRDIqLE-ELyAQFLzGB0-171" style="edgeStyle=orthogonalEdgeStyle;rounded=0;orthogonalLoop=1;jettySize=auto;html=1;strokeWidth=2;dashed=1;" edge="1" parent="1">
          <mxGeometry relative="1" as="geometry">
            <mxPoint x="633" y="935.94" as="targetPoint" />
            <mxPoint x="988.5999999999999" y="139.99882352941194" as="sourcePoint" />
            <Array as="points">
              <mxPoint x="1340" y="140" />
              <mxPoint x="1340" y="996" />
              <mxPoint x="633" y="996" />
            </Array>
          </mxGeometry>
        </mxCell>
        <mxCell id="BmRDIqLE-ELyAQFLzGB0-163" value="" style="sketch=0;aspect=fixed;pointerEvents=1;shadow=0;dashed=0;html=1;strokeColor=none;labelPosition=center;verticalLabelPosition=bottom;verticalAlign=top;align=center;fillColor=#56a6f0;shape=mxgraph.mscae.enterprise.backup_local" vertex="1" parent="1">
          <mxGeometry x="920" y="80" width="68.6" height="70" as="geometry" />
        </mxCell>
        <mxCell id="BmRDIqLE-ELyAQFLzGB0-166" value="&lt;span style=&quot;color: rgb(0, 0, 0); font-family: Helvetica; font-size: 9px; font-style: normal; font-variant-ligatures: normal; font-variant-caps: normal; font-weight: 700; letter-spacing: normal; orphans: 2; text-align: center; text-indent: 0px; text-transform: none; widows: 2; word-spacing: 0px; -webkit-text-stroke-width: 0px; white-space: normal; background-color: rgb(251, 251, 251); text-decoration-thickness: initial; text-decoration-style: initial; text-decoration-color: initial; float: none; display: inline !important;&quot;&gt;Backend Dotnet 8&lt;/span&gt;" style="text;whiteSpace=wrap;html=1;fontSize=9;" vertex="1" parent="1">
          <mxGeometry x="1020" y="662.5" width="110" height="20" as="geometry" />
        </mxCell>
        <mxCell id="BmRDIqLE-ELyAQFLzGB0-168" value="&lt;span style=&quot;color: rgb(0, 0, 0); font-family: Helvetica; font-size: 13px; font-style: normal; font-variant-ligatures: normal; font-variant-caps: normal; letter-spacing: normal; orphans: 2; text-align: center; text-indent: 0px; text-transform: none; widows: 2; word-spacing: 0px; -webkit-text-stroke-width: 0px; white-space: nowrap; background-color: rgb(255, 255, 255); text-decoration-thickness: initial; text-decoration-style: initial; text-decoration-color: initial; float: none; display: inline !important;&quot;&gt;ReplicaÃ§Ã£o Backup Azure&lt;/span&gt;" style="text;whiteSpace=wrap;html=1;fontStyle=1" vertex="1" parent="1">
          <mxGeometry x="1026" y="1126" width="200" height="40" as="geometry" />
        </mxCell>
        <mxCell id="BmRDIqLE-ELyAQFLzGB0-169" style="edgeStyle=orthogonalEdgeStyle;rounded=0;orthogonalLoop=1;jettySize=auto;html=1;entryX=0.601;entryY=0.307;entryDx=0;entryDy=0;entryPerimeter=0;" edge="1" parent="1" source="BmRDIqLE-ELyAQFLzGB0-62" target="BmRDIqLE-ELyAQFLzGB0-163">
          <mxGeometry relative="1" as="geometry">
            <Array as="points">
              <mxPoint x="361" y="61" />
              <mxPoint x="961" y="61" />
            </Array>
          </mxGeometry>
        </mxCell>
        <mxCell id="BmRDIqLE-ELyAQFLzGB0-170" value="&lt;span style=&quot;color: rgb(0, 0, 0); font-family: Helvetica; font-size: 13px; font-style: normal; font-variant-ligatures: normal; font-variant-caps: normal; letter-spacing: normal; orphans: 2; text-align: center; text-indent: 0px; text-transform: none; widows: 2; word-spacing: 0px; -webkit-text-stroke-width: 0px; white-space: nowrap; background-color: rgb(255, 255, 255); text-decoration-thickness: initial; text-decoration-style: initial; text-decoration-color: initial; float: none; display: inline !important;&quot;&gt;RedundÃ¢ncia/ Alta Disponibilidade&lt;/span&gt;" style="text;whiteSpace=wrap;html=1;fontStyle=1" vertex="1" parent="1">
          <mxGeometry x="650" y="30" width="200" height="40" as="geometry" />
        </mxCell>
        <mxCell id="BmRDIqLE-ELyAQFLzGB0-175" value="" style="endArrow=classic;html=1;rounded=0;" edge="1" parent="1" target="BmRDIqLE-ELyAQFLzGB0-122">
          <mxGeometry width="50" height="50" relative="1" as="geometry">
            <mxPoint x="849" y="991" as="sourcePoint" />
            <mxPoint x="900" y="1111" as="targetPoint" />
          </mxGeometry>
        </mxCell>
        <mxCell id="BmRDIqLE-ELyAQFLzGB0-176" value="&lt;span style=&quot;color: rgb(0, 0, 0); font-family: Helvetica; font-size: 15px; font-style: normal; font-variant-ligatures: normal; font-variant-caps: normal; font-weight: 700; letter-spacing: normal; orphans: 2; text-align: center; text-indent: 0px; text-transform: none; widows: 2; word-spacing: 0px; -webkit-text-stroke-width: 0px; white-space: normal; background-color: rgb(251, 251, 251); text-decoration-thickness: initial; text-decoration-style: initial; text-decoration-color: initial; display: inline !important; float: none;&quot;&gt;Bakcup VMs e DB&lt;/span&gt;&lt;div&gt;&lt;span style=&quot;color: rgb(0, 0, 0); font-family: Helvetica; font-size: 15px; font-style: normal; font-variant-ligatures: normal; font-variant-caps: normal; font-weight: 700; letter-spacing: normal; orphans: 2; text-align: center; text-indent: 0px; text-transform: none; widows: 2; word-spacing: 0px; -webkit-text-stroke-width: 0px; white-space: normal; background-color: rgb(251, 251, 251); text-decoration-thickness: initial; text-decoration-style: initial; text-decoration-color: initial; display: inline !important; float: none;&quot;&gt;&lt;br&gt;&lt;/span&gt;&lt;/div&gt;" style="text;whiteSpace=wrap;html=1;" vertex="1" parent="1">
          <mxGeometry x="1030" y="971" width="210" height="40" as="geometry" />
        </mxCell>
        <mxCell id="BmRDIqLE-ELyAQFLzGB0-180" style="edgeStyle=orthogonalEdgeStyle;rounded=0;orthogonalLoop=1;jettySize=auto;html=1;" edge="1" parent="1" source="BmRDIqLE-ELyAQFLzGB0-178" target="BmRDIqLE-ELyAQFLzGB0-122">
          <mxGeometry relative="1" as="geometry" />
        </mxCell>
        <mxCell id="BmRDIqLE-ELyAQFLzGB0-178" value="" style="image;aspect=fixed;html=1;points=[];align=center;fontSize=12;image=img/lib/azure2/databases/Azure_Database_MySQL_Server.svg;" vertex="1" parent="1">
          <mxGeometry x="694" y="724" width="48" height="64" as="geometry" />
        </mxCell>
        <mxCell id="BmRDIqLE-ELyAQFLzGB0-183" value="&lt;span style=&quot;color: rgb(0, 0, 0); font-family: Helvetica; font-size: 13px; font-style: normal; font-variant-ligatures: normal; font-variant-caps: normal; font-weight: 400; letter-spacing: normal; orphans: 2; text-align: center; text-indent: 0px; text-transform: none; widows: 2; word-spacing: 0px; -webkit-text-stroke-width: 0px; white-space: nowrap; background-color: rgb(255, 255, 255); text-decoration-thickness: initial; text-decoration-style: initial; text-decoration-color: initial; display: inline !important; float: none;&quot;&gt;Backup Local&lt;/span&gt;" style="text;whiteSpace=wrap;html=1;" vertex="1" parent="1">
          <mxGeometry x="910" y="150" width="94" height="21" as="geometry" />
        </mxCell>
        <mxCell id="BmRDIqLE-ELyAQFLzGB0-184" value="" style="image;aspect=fixed;html=1;points=[];align=center;fontSize=12;image=img/lib/azure2/other/Azure_Backup_Center.svg;" vertex="1" parent="1">
          <mxGeometry x="544.29" y="1101" width="98.71" height="90" as="geometry" />
        </mxCell>
        <UserObject label="" tags="Fundo" id="BmRDIqLE-ELyAQFLzGB0-188">
          <mxCell style="vsdxID=1085;edgeStyle=none;dashed=1;dashPattern=4.00 2.00;startArrow=none;endArrow=block;startSize=5;endSize=5;strokeWidth=2;strokeColor=#7f7f7f;spacingTop=0;spacingBottom=0;spacingLeft=0;spacingRight=0;verticalAlign=middle;html=1;labelBackgroundColor=#ffffff;rounded=0;entryX=-0.007;entryY=0.631;entryDx=0;entryDy=0;entryPerimeter=0;" edge="1" parent="1" target="BmRDIqLE-ELyAQFLzGB0-184">
            <mxGeometry relative="1" as="geometry">
              <Array as="points">
                <mxPoint x="376" y="1158" />
              </Array>
              <mxPoint x="376" y="1091" as="sourcePoint" />
              <mxPoint x="450" y="1181" as="targetPoint" />
            </mxGeometry>
          </mxCell>
        </UserObject>
        <mxCell id="BmRDIqLE-ELyAQFLzGB0-189" value="&lt;div style=&quot;font-size: 1px&quot;&gt;&lt;/div&gt;" style="text;vsdxID=1085;edgeStyle=none;dashed=1;dashPattern=4.00 2.00;startArrow=none;endArrow=block;startSize=5;endSize=5;strokeWidth=2;strokeColor=none;spacingTop=0;spacingBottom=0;spacingLeft=0;spacingRight=0;verticalAlign=middle;html=1;labelBackgroundColor=#ffffff;rounded=0;align=center;fillColor=none;gradientColor=none;whiteSpace=wrap;;html=1;;rotation=270" vertex="1" parent="BmRDIqLE-ELyAQFLzGB0-188">
          <mxGeometry width="62.31" relative="1" as="geometry">
            <mxPoint x="-31.155" as="offset" />
          </mxGeometry>
        </mxCell>
        <UserObject label="" tags="Fundo" id="BmRDIqLE-ELyAQFLzGB0-190">
          <mxCell style="vsdxID=1085;edgeStyle=none;dashed=1;dashPattern=4.00 2.00;startArrow=none;endArrow=block;startSize=5;endSize=5;strokeWidth=2;strokeColor=#7f7f7f;spacingTop=0;spacingBottom=0;spacingLeft=0;spacingRight=0;verticalAlign=middle;html=1;labelBackgroundColor=#ffffff;rounded=0;entryX=0.773;entryY=0.708;entryDx=0;entryDy=0;entryPerimeter=0;" edge="1" parent="1">
            <mxGeometry relative="1" as="geometry">
              <Array as="points">
                <mxPoint x="1528" y="1157" />
                <mxPoint x="1520" y="135" />
              </Array>
              <mxPoint x="621" y="1152.2580370259998" as="sourcePoint" />
              <mxPoint x="973.0278000000003" y="134.55999999999995" as="targetPoint" />
            </mxGeometry>
          </mxCell>
        </UserObject>
        <mxCell id="BmRDIqLE-ELyAQFLzGB0-191" value="&lt;div style=&quot;font-size: 1px&quot;&gt;&lt;/div&gt;" style="text;vsdxID=1085;edgeStyle=none;dashed=1;dashPattern=4.00 2.00;startArrow=none;endArrow=block;startSize=5;endSize=5;strokeWidth=2;strokeColor=none;spacingTop=0;spacingBottom=0;spacingLeft=0;spacingRight=0;verticalAlign=middle;html=1;labelBackgroundColor=#ffffff;rounded=0;align=center;fillColor=none;gradientColor=none;whiteSpace=wrap;;html=1;;rotation=270" vertex="1" parent="BmRDIqLE-ELyAQFLzGB0-190">
          <mxGeometry width="62.31" relative="1" as="geometry">
            <mxPoint x="-31.155" as="offset" />
          </mxGeometry>
        </mxCell>
        <mxCell id="BmRDIqLE-ELyAQFLzGB0-195" style="edgeStyle=orthogonalEdgeStyle;rounded=0;orthogonalLoop=1;jettySize=auto;html=1;" edge="1" parent="1" source="BmRDIqLE-ELyAQFLzGB0-192" target="BmRDIqLE-ELyAQFLzGB0-152">
          <mxGeometry relative="1" as="geometry" />
        </mxCell>
        <mxCell id="BmRDIqLE-ELyAQFLzGB0-192" value="Usuario Hibrido&amp;nbsp;&lt;div&gt;&lt;br&gt;&lt;/div&gt;" style="verticalLabelPosition=bottom;html=1;verticalAlign=top;align=center;strokeColor=none;fillColor=#00BEF2;shape=mxgraph.azure.user;" vertex="1" parent="1">
          <mxGeometry x="950" y="529.5" width="40" height="40" as="geometry" />
        </mxCell>
        <mxCell id="BmRDIqLE-ELyAQFLzGB0-199" style="edgeStyle=orthogonalEdgeStyle;rounded=0;orthogonalLoop=1;jettySize=auto;html=1;" edge="1" parent="1" source="BmRDIqLE-ELyAQFLzGB0-197" target="BmRDIqLE-ELyAQFLzGB0-37">
          <mxGeometry relative="1" as="geometry" />
        </mxCell>
        <mxCell id="BmRDIqLE-ELyAQFLzGB0-197" value="" style="image;sketch=0;aspect=fixed;html=1;points=[];align=center;fontSize=12;image=img/lib/mscae/VPN_Gateway.svg;" vertex="1" parent="1">
          <mxGeometry x="697" y="491" width="45" height="50" as="geometry" />
        </mxCell>
        <mxCell id="BmRDIqLE-ELyAQFLzGB0-200" value="VPN Remota" style="text;html=1;align=center;verticalAlign=middle;whiteSpace=wrap;rounded=0;fontSize=9;" vertex="1" parent="1">
          <mxGeometry x="673" y="541" width="90" height="20" as="geometry" />
        </mxCell>
        <mxCell id="BmRDIqLE-ELyAQFLzGB0-201" style="edgeStyle=orthogonalEdgeStyle;rounded=0;orthogonalLoop=1;jettySize=auto;html=1;entryX=0.059;entryY=0.85;entryDx=0;entryDy=0;entryPerimeter=0;" edge="1" parent="1" source="BmRDIqLE-ELyAQFLzGB0-197" target="BmRDIqLE-ELyAQFLzGB0-44">
          <mxGeometry relative="1" as="geometry">
            <Array as="points">
              <mxPoint x="730" y="408" />
            </Array>
          </mxGeometry>
        </mxCell>
        <mxCell id="BmRDIqLE-ELyAQFLzGB0-203" style="edgeStyle=orthogonalEdgeStyle;rounded=0;orthogonalLoop=1;jettySize=auto;html=1;entryX=0.936;entryY=0.805;entryDx=0;entryDy=0;entryPerimeter=0;" edge="1" parent="1" source="BmRDIqLE-ELyAQFLzGB0-192" target="BmRDIqLE-ELyAQFLzGB0-43">
          <mxGeometry relative="1" as="geometry" />
        </mxCell>
        <mxCell id="BmRDIqLE-ELyAQFLzGB0-204" value="&lt;span style=&quot;color: rgb(0, 0, 0); font-family: Helvetica; font-size: 10px; font-style: normal; font-variant-ligatures: normal; font-variant-caps: normal; font-weight: 400; letter-spacing: normal; orphans: 2; text-align: center; text-indent: 0px; text-transform: none; widows: 2; word-spacing: 0px; -webkit-text-stroke-width: 0px; white-space: nowrap; background-color: rgb(255, 255, 255); text-decoration-thickness: initial; text-decoration-style: initial; text-decoration-color: initial; float: none; display: inline !important;&quot;&gt;MFA&lt;/span&gt;" style="text;whiteSpace=wrap;html=1;fontSize=10;" vertex="1" parent="1">
          <mxGeometry x="847" y="521" width="40" height="20" as="geometry" />
        </mxCell>
        <mxCell id="BmRDIqLE-ELyAQFLzGB0-205" value="&lt;span style=&quot;color: rgb(0, 0, 0); font-family: Helvetica; font-size: 8px; font-style: normal; font-variant-ligatures: normal; font-variant-caps: normal; font-weight: 400; letter-spacing: normal; orphans: 2; text-align: center; text-indent: 0px; text-transform: none; widows: 2; word-spacing: 0px; -webkit-text-stroke-width: 0px; white-space: nowrap; background-color: rgb(255, 255, 255); text-decoration-thickness: initial; text-decoration-style: initial; text-decoration-color: initial; float: none; display: inline !important;&quot;&gt;Data Center&lt;br&gt;Infraestrutura Local&lt;/span&gt;" style="text;whiteSpace=wrap;html=1;fontSize=8;" vertex="1" parent="1">
          <mxGeometry x="317" y="259" width="73" height="20" as="geometry" />
        </mxCell>
        <mxCell id="BmRDIqLE-ELyAQFLzGB0-206" value="&lt;span style=&quot;color: rgb(0, 0, 0); font-family: Helvetica; font-size: 8px; font-style: normal; font-variant-ligatures: normal; font-variant-caps: normal; font-weight: 400; letter-spacing: normal; orphans: 2; text-align: center; text-indent: 0px; text-transform: none; widows: 2; word-spacing: 0px; -webkit-text-stroke-width: 0px; white-space: nowrap; background-color: rgb(255, 255, 255); text-decoration-thickness: initial; text-decoration-style: initial; text-decoration-color: initial; float: none; display: inline !important;&quot;&gt;Rede Interna&lt;/span&gt;" style="text;whiteSpace=wrap;html=1;fontSize=8;" vertex="1" parent="1">
          <mxGeometry x="477" y="246" width="73" height="20" as="geometry" />
        </mxCell>
        <mxCell id="BmRDIqLE-ELyAQFLzGB0-207" value="&lt;span style=&quot;color: rgb(0, 0, 0); font-family: Helvetica; font-size: 8px; font-style: normal; font-variant-ligatures: normal; font-variant-caps: normal; font-weight: 400; letter-spacing: normal; orphans: 2; text-align: center; text-indent: 0px; text-transform: none; widows: 2; word-spacing: 0px; -webkit-text-stroke-width: 0px; white-space: nowrap; background-color: rgb(255, 255, 255); text-decoration-thickness: initial; text-decoration-style: initial; text-decoration-color: initial; float: none; display: inline !important;&quot;&gt;LAN Firewall&lt;/span&gt;" style="text;whiteSpace=wrap;html=1;fontSize=8;" vertex="1" parent="1">
          <mxGeometry x="483.5" y="216" width="73" height="20" as="geometry" />
        </mxCell>
        <UserObject label="" tags="Fundo" id="BmRDIqLE-ELyAQFLzGB0-210">
          <mxCell style="vsdxID=1085;edgeStyle=none;dashed=1;dashPattern=4.00 2.00;startArrow=none;endArrow=block;startSize=5;endSize=5;strokeWidth=2;strokeColor=#7f7f7f;spacingTop=0;spacingBottom=0;spacingLeft=0;spacingRight=0;verticalAlign=middle;html=1;labelBackgroundColor=#ffffff;rounded=0;entryX=0.145;entryY=0.145;entryDx=0;entryDy=0;entryPerimeter=0;" edge="1" parent="1" source="BmRDIqLE-ELyAQFLzGB0-22" target="BmRDIqLE-ELyAQFLzGB0-36">
            <mxGeometry relative="1" as="geometry">
              <Array as="points">
                <mxPoint x="290" y="751" />
                <mxPoint x="290" y="331" />
                <mxPoint x="590" y="331" />
              </Array>
              <mxPoint x="300" y="761" as="sourcePoint" />
              <mxPoint x="610" y="331" as="targetPoint" />
            </mxGeometry>
          </mxCell>
        </UserObject>
        <mxCell id="BmRDIqLE-ELyAQFLzGB0-211" value="&lt;div style=&quot;font-size: 1px&quot;&gt;&lt;/div&gt;" style="text;vsdxID=1085;edgeStyle=none;dashed=1;dashPattern=4.00 2.00;startArrow=none;endArrow=block;startSize=5;endSize=5;strokeWidth=2;strokeColor=none;spacingTop=0;spacingBottom=0;spacingLeft=0;spacingRight=0;verticalAlign=middle;html=1;labelBackgroundColor=#ffffff;rounded=0;align=center;fillColor=none;gradientColor=none;whiteSpace=wrap;;html=1;;rotation=270" vertex="1" parent="BmRDIqLE-ELyAQFLzGB0-210">
          <mxGeometry width="62.31" relative="1" as="geometry">
            <mxPoint x="-31.155" as="offset" />
          </mxGeometry>
        </mxCell>
        <mxCell id="BmRDIqLE-ELyAQFLzGB0-213" value="&lt;span style=&quot;color: rgb(0, 0, 0); font-family: Helvetica; font-size: 8px; font-style: normal; font-variant-ligatures: normal; font-variant-caps: normal; font-weight: 400; letter-spacing: normal; orphans: 2; text-align: center; text-indent: 0px; text-transform: none; widows: 2; word-spacing: 0px; -webkit-text-stroke-width: 0px; white-space: nowrap; background-color: rgb(255, 255, 255); text-decoration-thickness: initial; text-decoration-style: initial; text-decoration-color: initial; float: none; display: inline !important;&quot;&gt;Link Wan&lt;/span&gt;" style="text;whiteSpace=wrap;html=1;fontSize=8;" vertex="1" parent="1">
          <mxGeometry x="410" y="311" width="73" height="20" as="geometry" />
        </mxCell>
        <mxCell id="BmRDIqLE-ELyAQFLzGB0-216" value="&lt;h2 class=&quot;h4 pt-3&quot; style=&quot;box-sizing: border-box; margin-top: 0px; margin-bottom: 0.75rem; font-family: &amp;quot;Segoe UI&amp;quot;, SegoeUI, &amp;quot;Helvetica Neue&amp;quot;, Helvetica, Arial, sans-serif; font-weight: 600; line-height: 1.2; font-size: 17px; color: rgb(0, 0, 0); font-style: normal; font-variant-ligatures: normal; font-variant-caps: normal; letter-spacing: normal; orphans: 2; text-align: left; text-indent: 0px; text-transform: none; widows: 2; word-spacing: 0px; -webkit-text-stroke-width: 0px; white-space: normal; background-color: rgb(255, 255, 255); text-decoration-thickness: initial; text-decoration-style: initial; text-decoration-color: initial; padding-top: 1rem !important;&quot;&gt;Backup Centralizado Azure&lt;/h2&gt;" style="text;whiteSpace=wrap;html=1;" vertex="1" parent="1">
          <mxGeometry x="330" y="1175" width="310" height="80" as="geometry" />
        </mxCell>
        <mxCell id="BmRDIqLE-ELyAQFLzGB0-217" value="&lt;span style=&quot;color: rgb(0, 0, 0); font-family: Helvetica; font-size: 13px; font-style: normal; font-variant-ligatures: normal; font-variant-caps: normal; font-weight: 400; letter-spacing: normal; orphans: 2; text-align: center; text-indent: 0px; text-transform: none; widows: 2; word-spacing: 0px; -webkit-text-stroke-width: 0px; white-space: nowrap; background-color: rgb(255, 255, 255); text-decoration-thickness: initial; text-decoration-style: initial; text-decoration-color: initial; display: inline !important; float: none;&quot;&gt;Acesso via SSO&lt;/span&gt;" style="text;whiteSpace=wrap;html=1;" vertex="1" parent="1">
          <mxGeometry x="1010" y="521" width="130" height="40" as="geometry" />
        </mxCell>
        <mxCell id="BmRDIqLE-ELyAQFLzGB0-220" value="" style="endArrow=classic;html=1;rounded=0;" edge="1" parent="1">
          <mxGeometry width="50" height="50" relative="1" as="geometry">
            <mxPoint x="990" y="521" as="sourcePoint" />
            <mxPoint x="1170" y="351" as="targetPoint" />
          </mxGeometry>
        </mxCell>
        <mxCell id="BmRDIqLE-ELyAQFLzGB0-226" style="edgeStyle=orthogonalEdgeStyle;rounded=0;orthogonalLoop=1;jettySize=auto;html=1;fontStyle=1;strokeWidth=2;dashed=1;" edge="1" parent="1" source="BmRDIqLE-ELyAQFLzGB0-223" target="BmRDIqLE-ELyAQFLzGB0-9">
          <mxGeometry relative="1" as="geometry">
            <Array as="points">
              <mxPoint x="796" y="68" />
              <mxPoint x="210" y="68" />
              <mxPoint x="210" y="647" />
            </Array>
          </mxGeometry>
        </mxCell>
        <mxCell id="BmRDIqLE-ELyAQFLzGB0-223" value="" style="image;aspect=fixed;html=1;points=[];align=center;fontSize=11;image=img/lib/azure2/identity/Managed_Identities.svg;" vertex="1" parent="1">
          <mxGeometry x="762" y="82" width="68" height="66" as="geometry" />
        </mxCell>
        <mxCell id="BmRDIqLE-ELyAQFLzGB0-9" value="&lt;div style=&quot;font-size: 1px&quot;&gt;&lt;font style=&quot;font-size:15.52px;font-family:Segoe UI;color:#000000;direction:ltr;letter-spacing:0px;line-height:120%;opacity:1&quot;&gt;Azure Active Directory&lt;br/&gt;&lt;/font&gt;&lt;/div&gt;" style="text;vsdxID=1;fillColor=none;gradientColor=none;strokeColor=none;spacingTop=-3;spacingBottom=-3;spacingLeft=-3;spacingRight=-3;points=[[0.5,1.68,0],[0.5,0,0],[0,0.5,0],[1,0.5,0]];labelBackgroundColor=none;rounded=0;html=1;whiteSpace=wrap;verticalAlign=middle;align=center;overflow=width;;html=1;" vertex="1" parent="1">
          <mxGeometry x="329.2" y="628" width="101.6" height="37.26" as="geometry" />
        </mxCell>
        <mxCell id="BmRDIqLE-ELyAQFLzGB0-224" value="&lt;div style=&quot;font-size: 11px;&quot;&gt;&lt;font style=&quot;font-size: 11px; font-family: &amp;quot;Segoe UI&amp;quot;; color: rgb(0, 0, 0); direction: ltr; letter-spacing: 0px; line-height: 120%; opacity: 1;&quot;&gt;Local Active Directory&lt;br style=&quot;font-size: 11px;&quot;&gt;&lt;/font&gt;&lt;/div&gt;" style="text;vsdxID=1;fillColor=none;gradientColor=none;strokeColor=none;spacingTop=-3;spacingBottom=-3;spacingLeft=-3;spacingRight=-3;points=[[0.5,1.68,0],[0.5,0,0],[0,0.5,0],[1,0.5,0]];labelBackgroundColor=none;rounded=0;html=1;whiteSpace=wrap;verticalAlign=middle;align=center;overflow=width;;html=1;fontSize=11;" vertex="1" parent="1">
          <mxGeometry x="750" y="148" width="100" height="41" as="geometry" />
        </mxCell>
        <mxCell id="BmRDIqLE-ELyAQFLzGB0-225" style="edgeStyle=orthogonalEdgeStyle;rounded=0;orthogonalLoop=1;jettySize=auto;html=1;entryX=0.108;entryY=-0.019;entryDx=0;entryDy=0;entryPerimeter=0;" edge="1" parent="1" source="BmRDIqLE-ELyAQFLzGB0-223" target="BmRDIqLE-ELyAQFLzGB0-62">
          <mxGeometry relative="1" as="geometry">
            <Array as="points">
              <mxPoint x="770" y="178" />
              <mxPoint x="329" y="178" />
            </Array>
          </mxGeometry>
        </mxCell>
        <mxCell id="BmRDIqLE-ELyAQFLzGB0-227" value="&lt;span style=&quot;color: rgb(0, 0, 0); font-family: Helvetica; font-size: 13px; font-style: normal; font-variant-ligatures: normal; font-variant-caps: normal; letter-spacing: normal; orphans: 2; text-align: center; text-indent: 0px; text-transform: none; widows: 2; word-spacing: 0px; -webkit-text-stroke-width: 0px; white-space: nowrap; background-color: rgb(255, 255, 255); text-decoration-thickness: initial; text-decoration-style: initial; text-decoration-color: initial; float: none; display: inline !important;&quot;&gt;Entra AD Sync&lt;/span&gt;" style="text;whiteSpace=wrap;html=1;fontStyle=1" vertex="1" parent="1">
          <mxGeometry x="110" y="341" width="100" height="40" as="geometry" />
        </mxCell>
        <mxCell id="BmRDIqLE-ELyAQFLzGB0-230" style="edgeStyle=orthogonalEdgeStyle;rounded=0;orthogonalLoop=1;jettySize=auto;html=1;entryX=0.5;entryY=0;entryDx=0;entryDy=0;entryPerimeter=0;strokeWidth=2;dashed=1;dashPattern=1 1;" edge="1" parent="1" source="BmRDIqLE-ELyAQFLzGB0-224" target="BmRDIqLE-ELyAQFLzGB0-42">
          <mxGeometry relative="1" as="geometry" />
        </mxCell>
        <mxCell id="BmRDIqLE-ELyAQFLzGB0-231" value="&lt;span style=&quot;color: rgb(0, 0, 0); font-family: Helvetica; font-size: 8px; font-style: normal; font-variant-ligatures: normal; font-variant-caps: normal; font-weight: 400; letter-spacing: normal; orphans: 2; text-align: center; text-indent: 0px; text-transform: none; widows: 2; word-spacing: 0px; -webkit-text-stroke-width: 0px; white-space: nowrap; background-color: rgb(255, 255, 255); text-decoration-thickness: initial; text-decoration-style: initial; text-decoration-color: initial; display: inline !important; float: none;&quot;&gt;Gerenciamento AD Local&lt;/span&gt;" style="text;whiteSpace=wrap;html=1;" vertex="1" parent="1">
          <mxGeometry x="450" y="170" width="140" height="40" as="geometry" />
        </mxCell>
        <mxCell id="BmRDIqLE-ELyAQFLzGB0-237" style="edgeStyle=orthogonalEdgeStyle;rounded=0;orthogonalLoop=1;jettySize=auto;html=1;entryX=1;entryY=0.5;entryDx=0;entryDy=0;entryPerimeter=0;dashed=1;strokeWidth=2;" edge="1" parent="1" source="BmRDIqLE-ELyAQFLzGB0-233" target="BmRDIqLE-ELyAQFLzGB0-45">
          <mxGeometry relative="1" as="geometry">
            <mxPoint x="1251.9999999999995" y="378" as="targetPoint" />
            <Array as="points">
              <mxPoint x="1260" y="408" />
              <mxPoint x="798" y="408" />
            </Array>
          </mxGeometry>
        </mxCell>
        <mxCell id="BmRDIqLE-ELyAQFLzGB0-242" style="edgeStyle=orthogonalEdgeStyle;rounded=0;orthogonalLoop=1;jettySize=auto;html=1;dashed=1;strokeWidth=2;" edge="1" parent="1" source="BmRDIqLE-ELyAQFLzGB0-233" target="BmRDIqLE-ELyAQFLzGB0-152">
          <mxGeometry relative="1" as="geometry">
            <Array as="points">
              <mxPoint x="1260" y="549" />
            </Array>
          </mxGeometry>
        </mxCell>
        <mxCell id="BmRDIqLE-ELyAQFLzGB0-233" value="&lt;br&gt;&lt;span style=&quot;color: rgb(0, 0, 0); font-family: &amp;quot;Segoe UI&amp;quot;; font-size: 15.52px; font-style: normal; font-variant-ligatures: normal; font-variant-caps: normal; font-weight: 400; letter-spacing: normal; orphans: 2; text-align: center; text-indent: 0px; text-transform: none; widows: 2; word-spacing: 0px; -webkit-text-stroke-width: 0px; white-space: normal; background-color: rgb(251, 251, 251); text-decoration-thickness: initial; text-decoration-style: initial; text-decoration-color: initial; display: inline !important; float: none;&quot;&gt;Log&lt;/span&gt;&lt;br style=&quot;color: rgb(0, 0, 0); font-family: &amp;quot;Segoe UI&amp;quot;; font-size: 15.52px; font-style: normal; font-variant-ligatures: normal; font-variant-caps: normal; font-weight: 400; letter-spacing: normal; orphans: 2; text-align: center; text-indent: 0px; text-transform: none; widows: 2; word-spacing: 0px; -webkit-text-stroke-width: 0px; white-space: normal; background-color: rgb(251, 251, 251); text-decoration-thickness: initial; text-decoration-style: initial; text-decoration-color: initial;&quot;&gt;&lt;span style=&quot;color: rgb(0, 0, 0); font-family: &amp;quot;Segoe UI&amp;quot;; font-size: 15.52px; font-style: normal; font-variant-ligatures: normal; font-variant-caps: normal; font-weight: 400; letter-spacing: normal; orphans: 2; text-align: center; text-indent: 0px; text-transform: none; widows: 2; word-spacing: 0px; -webkit-text-stroke-width: 0px; white-space: normal; background-color: rgb(251, 251, 251); text-decoration-thickness: initial; text-decoration-style: initial; text-decoration-color: initial; display: inline !important; float: none;&quot;&gt;Analytics&lt;/span&gt;" style="image;aspect=fixed;html=1;points=[];align=center;fontSize=12;image=img/lib/azure2/analytics/Log_Analytics_Workspaces.svg;" vertex="1" parent="1">
          <mxGeometry x="1220" y="771" width="64" height="64" as="geometry" />
        </mxCell>
        <mxCell id="BmRDIqLE-ELyAQFLzGB0-235" value="&#xa;&lt;i style=&quot;color: rgb(0, 0, 0); font-family: &amp;quot;Segoe UI&amp;quot;; font-size: 15.52px; font-variant-ligatures: normal; font-variant-caps: normal; font-weight: 400; letter-spacing: normal; orphans: 2; text-align: center; text-indent: 0px; text-transform: none; widows: 2; word-spacing: 0px; -webkit-text-stroke-width: 0px; white-space: normal; background-color: rgb(251, 251, 251); text-decoration-thickness: initial; text-decoration-style: initial; text-decoration-color: initial;&quot;&gt;Production&lt;/i&gt;&#xa;&#xa;" style="image;aspect=fixed;html=1;points=[];align=center;fontSize=12;image=img/lib/azure2/general/Production_Ready_Database.svg;" vertex="1" parent="1">
          <mxGeometry x="508.5" y="628" width="48" height="64" as="geometry" />
        </mxCell>
        <mxCell id="BmRDIqLE-ELyAQFLzGB0-241" value="Logs de&amp;nbsp; diagnÃ³stico e dados de MÃ©tricas" style="text;whiteSpace=wrap;html=1;fontSize=10;" vertex="1" parent="1">
          <mxGeometry x="847" y="411" width="196" height="20" as="geometry" />
        </mxCell>
        <mxCell id="BmRDIqLE-ELyAQFLzGB0-243" value="Logs de&amp;nbsp; diagnÃ³stico e dados de MÃ©tricas" style="text;whiteSpace=wrap;html=1;fontSize=10;rotation=-90;" vertex="1" parent="1">
          <mxGeometry x="1170" y="628" width="196" height="20" as="geometry" />
        </mxCell>
      </root>
    </mxGraphModel>
  </diagram>
</mxfile>
